<mxfile host="65bd71144e">
    <diagram name="Página-1" id="3FmcehI-daZTEMHIx7WE">
        <mxGraphModel dx="1061" dy="1785" grid="1" gridSize="10" guides="1" tooltips="1" connect="1" arrows="1" fold="1" page="1" pageScale="1" pageWidth="827" pageHeight="1169" math="0" shadow="0">
            <root>
                <mxCell id="0"/>
                <mxCell id="1" parent="0"/>
                <mxCell id="FKznoHfliuPDqVIt7DfG-1" value="Album" style="rounded=0;whiteSpace=wrap;html=1;" parent="1" vertex="1">
                    <mxGeometry x="240" y="220" width="120" height="60" as="geometry"/>
                </mxCell>
                <mxCell id="FKznoHfliuPDqVIt7DfG-2" value="Estilo" style="rounded=0;whiteSpace=wrap;html=1;" parent="1" vertex="1">
                    <mxGeometry x="240" y="-100" width="120" height="60" as="geometry"/>
                </mxCell>
                <mxCell id="FKznoHfliuPDqVIt7DfG-3" value="Possui" style="rhombus;whiteSpace=wrap;html=1;" parent="1" vertex="1">
                    <mxGeometry x="260" y="70" width="80" height="80" as="geometry"/>
                </mxCell>
                <mxCell id="FKznoHfliuPDqVIt7DfG-4" value="Usuario" style="rounded=0;whiteSpace=wrap;html=1;" parent="1" vertex="1">
                    <mxGeometry x="700" y="320" width="120" height="60" as="geometry"/>
                </mxCell>
                <mxCell id="FKznoHfliuPDqVIt7DfG-6" value="Nome" style="ellipse;whiteSpace=wrap;html=1;" parent="1" vertex="1">
                    <mxGeometry x="960" y="210" width="120" height="80" as="geometry"/>
                </mxCell>
                <mxCell id="FKznoHfliuPDqVIt7DfG-7" value="Email" style="ellipse;whiteSpace=wrap;html=1;" parent="1" vertex="1">
                    <mxGeometry x="960" y="310" width="120" height="80" as="geometry"/>
                </mxCell>
                <mxCell id="FKznoHfliuPDqVIt7DfG-8" value="Senha" style="ellipse;whiteSpace=wrap;html=1;" parent="1" vertex="1">
                    <mxGeometry x="960" y="410" width="120" height="80" as="geometry"/>
                </mxCell>
                <mxCell id="FKznoHfliuPDqVIt7DfG-10" value="Tipo de Permissão" style="rounded=0;whiteSpace=wrap;html=1;" parent="1" vertex="1">
                    <mxGeometry x="700" y="10" width="120" height="60" as="geometry"/>
                </mxCell>
                <mxCell id="FKznoHfliuPDqVIt7DfG-11" value="Possui" style="rhombus;whiteSpace=wrap;html=1;" parent="1" vertex="1">
                    <mxGeometry x="720" y="150" width="80" height="80" as="geometry"/>
                </mxCell>
                <mxCell id="FKznoHfliuPDqVIt7DfG-12" value="Artista" style="rounded=0;whiteSpace=wrap;html=1;" parent="1" vertex="1">
                    <mxGeometry x="240" y="460" width="120" height="60" as="geometry"/>
                </mxCell>
                <mxCell id="FKznoHfliuPDqVIt7DfG-13" value="Nome" style="ellipse;whiteSpace=wrap;html=1;" parent="1" vertex="1">
                    <mxGeometry x="240" y="-220" width="120" height="80" as="geometry"/>
                </mxCell>
                <mxCell id="FKznoHfliuPDqVIt7DfG-14" value="TItulo" style="ellipse;whiteSpace=wrap;html=1;" parent="1" vertex="1">
                    <mxGeometry x="-80" y="10" width="120" height="80" as="geometry"/>
                </mxCell>
                <mxCell id="FKznoHfliuPDqVIt7DfG-15" value="Data de Lançamento" style="ellipse;whiteSpace=wrap;html=1;" parent="1" vertex="1">
                    <mxGeometry x="-80" y="110" width="120" height="80" as="geometry"/>
                </mxCell>
                <mxCell id="FKznoHfliuPDqVIt7DfG-16" value="Localização" style="ellipse;whiteSpace=wrap;html=1;" parent="1" vertex="1">
                    <mxGeometry x="-80" y="210" width="120" height="80" as="geometry"/>
                </mxCell>
                <mxCell id="FKznoHfliuPDqVIt7DfG-17" value="Quantidade de minutos" style="ellipse;whiteSpace=wrap;html=1;" parent="1" vertex="1">
                    <mxGeometry x="-80" y="310" width="120" height="80" as="geometry"/>
                </mxCell>
                <mxCell id="FKznoHfliuPDqVIt7DfG-18" value="Ativo" style="ellipse;whiteSpace=wrap;html=1;" parent="1" vertex="1">
                    <mxGeometry x="-80" y="410" width="120" height="80" as="geometry"/>
                </mxCell>
                <mxCell id="FKznoHfliuPDqVIt7DfG-19" value="Possui" style="rhombus;whiteSpace=wrap;html=1;" parent="1" vertex="1">
                    <mxGeometry x="260" y="330" width="80" height="80" as="geometry"/>
                </mxCell>
                <mxCell id="FKznoHfliuPDqVIt7DfG-20" value="" style="endArrow=none;html=1;rounded=0;entryX=0.5;entryY=1;entryDx=0;entryDy=0;exitX=0.5;exitY=0;exitDx=0;exitDy=0;" parent="1" source="FKznoHfliuPDqVIt7DfG-3" target="FKznoHfliuPDqVIt7DfG-2" edge="1">
                    <mxGeometry width="50" height="50" relative="1" as="geometry">
                        <mxPoint x="160" y="160" as="sourcePoint"/>
                        <mxPoint x="210" y="110" as="targetPoint"/>
                    </mxGeometry>
                </mxCell>
                <mxCell id="FKznoHfliuPDqVIt7DfG-21" value="" style="endArrow=none;html=1;rounded=0;entryX=0.5;entryY=1;entryDx=0;entryDy=0;" parent="1" target="FKznoHfliuPDqVIt7DfG-3" edge="1">
                    <mxGeometry width="50" height="50" relative="1" as="geometry">
                        <mxPoint x="300" y="220" as="sourcePoint"/>
                        <mxPoint x="310" y="200" as="targetPoint"/>
                    </mxGeometry>
                </mxCell>
                <mxCell id="FKznoHfliuPDqVIt7DfG-22" value="" style="endArrow=none;html=1;rounded=0;exitX=0.5;exitY=0;exitDx=0;exitDy=0;entryX=0.5;entryY=1;entryDx=0;entryDy=0;" parent="1" source="FKznoHfliuPDqVIt7DfG-19" target="FKznoHfliuPDqVIt7DfG-1" edge="1">
                    <mxGeometry width="50" height="50" relative="1" as="geometry">
                        <mxPoint x="299.82" y="310" as="sourcePoint"/>
                        <mxPoint x="320" y="300" as="targetPoint"/>
                    </mxGeometry>
                </mxCell>
                <mxCell id="FKznoHfliuPDqVIt7DfG-25" value="" style="endArrow=none;html=1;rounded=0;entryX=0.5;entryY=1;entryDx=0;entryDy=0;exitX=0.5;exitY=0;exitDx=0;exitDy=0;" parent="1" source="FKznoHfliuPDqVIt7DfG-12" target="FKznoHfliuPDqVIt7DfG-19" edge="1">
                    <mxGeometry width="50" height="50" relative="1" as="geometry">
                        <mxPoint x="310" y="450" as="sourcePoint"/>
                        <mxPoint x="320" y="420" as="targetPoint"/>
                    </mxGeometry>
                </mxCell>
                <mxCell id="FKznoHfliuPDqVIt7DfG-26" value="" style="endArrow=none;html=1;rounded=0;entryX=0.5;entryY=1;entryDx=0;entryDy=0;exitX=0.5;exitY=0;exitDx=0;exitDy=0;" parent="1" source="FKznoHfliuPDqVIt7DfG-2" edge="1">
                    <mxGeometry width="50" height="50" relative="1" as="geometry">
                        <mxPoint x="299.74" y="-110" as="sourcePoint"/>
                        <mxPoint x="299.74" y="-140" as="targetPoint"/>
                    </mxGeometry>
                </mxCell>
                <mxCell id="FKznoHfliuPDqVIt7DfG-27" value="" style="endArrow=none;html=1;rounded=0;exitX=1;exitY=0.5;exitDx=0;exitDy=0;entryX=0;entryY=0.5;entryDx=0;entryDy=0;" parent="1" source="FKznoHfliuPDqVIt7DfG-14" target="FKznoHfliuPDqVIt7DfG-1" edge="1">
                    <mxGeometry width="50" height="50" relative="1" as="geometry">
                        <mxPoint x="80" y="100" as="sourcePoint"/>
                        <mxPoint x="130" y="50" as="targetPoint"/>
                    </mxGeometry>
                </mxCell>
                <mxCell id="FKznoHfliuPDqVIt7DfG-28" value="" style="endArrow=none;html=1;rounded=0;exitX=1;exitY=0.5;exitDx=0;exitDy=0;entryX=0;entryY=0.5;entryDx=0;entryDy=0;" parent="1" source="FKznoHfliuPDqVIt7DfG-15" target="FKznoHfliuPDqVIt7DfG-1" edge="1">
                    <mxGeometry width="50" height="50" relative="1" as="geometry">
                        <mxPoint x="60" y="260" as="sourcePoint"/>
                        <mxPoint x="110" y="210" as="targetPoint"/>
                    </mxGeometry>
                </mxCell>
                <mxCell id="FKznoHfliuPDqVIt7DfG-29" value="" style="endArrow=none;html=1;rounded=0;exitX=1;exitY=0.5;exitDx=0;exitDy=0;entryX=0;entryY=0.5;entryDx=0;entryDy=0;" parent="1" source="FKznoHfliuPDqVIt7DfG-16" target="FKznoHfliuPDqVIt7DfG-1" edge="1">
                    <mxGeometry width="50" height="50" relative="1" as="geometry">
                        <mxPoint x="130" y="340" as="sourcePoint"/>
                        <mxPoint x="180" y="290" as="targetPoint"/>
                    </mxGeometry>
                </mxCell>
                <mxCell id="FKznoHfliuPDqVIt7DfG-30" value="" style="endArrow=none;html=1;rounded=0;exitX=1;exitY=0.5;exitDx=0;exitDy=0;entryX=0;entryY=0.5;entryDx=0;entryDy=0;" parent="1" source="FKznoHfliuPDqVIt7DfG-17" target="FKznoHfliuPDqVIt7DfG-1" edge="1">
                    <mxGeometry width="50" height="50" relative="1" as="geometry">
                        <mxPoint x="80" y="400" as="sourcePoint"/>
                        <mxPoint x="130" y="350" as="targetPoint"/>
                    </mxGeometry>
                </mxCell>
                <mxCell id="FKznoHfliuPDqVIt7DfG-31" value="" style="endArrow=none;html=1;rounded=0;exitX=1;exitY=0.5;exitDx=0;exitDy=0;entryX=0;entryY=0.5;entryDx=0;entryDy=0;" parent="1" source="FKznoHfliuPDqVIt7DfG-18" target="FKznoHfliuPDqVIt7DfG-1" edge="1">
                    <mxGeometry width="50" height="50" relative="1" as="geometry">
                        <mxPoint x="100" y="460" as="sourcePoint"/>
                        <mxPoint x="150" y="410" as="targetPoint"/>
                    </mxGeometry>
                </mxCell>
                <mxCell id="FKznoHfliuPDqVIt7DfG-32" value="" style="endArrow=none;html=1;rounded=0;entryX=0;entryY=0.5;entryDx=0;entryDy=0;exitX=1;exitY=0.5;exitDx=0;exitDy=0;" parent="1" source="FKznoHfliuPDqVIt7DfG-4" target="FKznoHfliuPDqVIt7DfG-6" edge="1">
                    <mxGeometry width="50" height="50" relative="1" as="geometry">
                        <mxPoint x="780" y="300" as="sourcePoint"/>
                        <mxPoint x="830" y="250" as="targetPoint"/>
                    </mxGeometry>
                </mxCell>
                <mxCell id="FKznoHfliuPDqVIt7DfG-33" value="" style="endArrow=none;html=1;rounded=0;exitX=1;exitY=0.5;exitDx=0;exitDy=0;entryX=0;entryY=0.5;entryDx=0;entryDy=0;" parent="1" source="FKznoHfliuPDqVIt7DfG-4" target="FKznoHfliuPDqVIt7DfG-7" edge="1">
                    <mxGeometry width="50" height="50" relative="1" as="geometry">
                        <mxPoint x="740" y="560" as="sourcePoint"/>
                        <mxPoint x="790" y="510" as="targetPoint"/>
                    </mxGeometry>
                </mxCell>
                <mxCell id="FKznoHfliuPDqVIt7DfG-34" value="" style="endArrow=none;html=1;rounded=0;exitX=1;exitY=0.5;exitDx=0;exitDy=0;entryX=0;entryY=0.5;entryDx=0;entryDy=0;" parent="1" source="FKznoHfliuPDqVIt7DfG-4" target="FKznoHfliuPDqVIt7DfG-8" edge="1">
                    <mxGeometry width="50" height="50" relative="1" as="geometry">
                        <mxPoint x="820" y="570" as="sourcePoint"/>
                        <mxPoint x="870" y="520" as="targetPoint"/>
                    </mxGeometry>
                </mxCell>
                <mxCell id="FKznoHfliuPDqVIt7DfG-35" value="" style="endArrow=none;html=1;rounded=0;entryX=0.5;entryY=1;entryDx=0;entryDy=0;exitX=0.5;exitY=0;exitDx=0;exitDy=0;" parent="1" source="FKznoHfliuPDqVIt7DfG-11" target="FKznoHfliuPDqVIt7DfG-10" edge="1">
                    <mxGeometry width="50" height="50" relative="1" as="geometry">
                        <mxPoint x="670" y="140" as="sourcePoint"/>
                        <mxPoint x="720" y="90" as="targetPoint"/>
                    </mxGeometry>
                </mxCell>
                <mxCell id="FKznoHfliuPDqVIt7DfG-36" value="" style="endArrow=none;html=1;rounded=0;entryX=0.5;entryY=1;entryDx=0;entryDy=0;exitX=0.5;exitY=0;exitDx=0;exitDy=0;" parent="1" source="FKznoHfliuPDqVIt7DfG-4" target="FKznoHfliuPDqVIt7DfG-11" edge="1">
                    <mxGeometry width="50" height="50" relative="1" as="geometry">
                        <mxPoint x="700" y="300" as="sourcePoint"/>
                        <mxPoint x="750" y="250" as="targetPoint"/>
                    </mxGeometry>
                </mxCell>
                <mxCell id="FKznoHfliuPDqVIt7DfG-37" value="1" style="text;html=1;align=center;verticalAlign=middle;resizable=0;points=[];autosize=1;strokeColor=none;fillColor=none;" parent="1" vertex="1">
                    <mxGeometry x="760" y="70" width="30" height="30" as="geometry"/>
                </mxCell>
                <mxCell id="FKznoHfliuPDqVIt7DfG-38" value="1" style="text;html=1;align=center;verticalAlign=middle;resizable=0;points=[];autosize=1;strokeColor=none;fillColor=none;" parent="1" vertex="1">
                    <mxGeometry x="760" y="290" width="30" height="30" as="geometry"/>
                </mxCell>
                <mxCell id="FKznoHfliuPDqVIt7DfG-43" value="N" style="text;html=1;align=center;verticalAlign=middle;resizable=0;points=[];autosize=1;strokeColor=none;fillColor=none;" parent="1" vertex="1">
                    <mxGeometry x="300" y="-10" width="30" height="30" as="geometry"/>
                </mxCell>
                <mxCell id="FKznoHfliuPDqVIt7DfG-44" value="N" style="text;html=1;align=center;verticalAlign=middle;resizable=0;points=[];autosize=1;strokeColor=none;fillColor=none;" parent="1" vertex="1">
                    <mxGeometry x="305" y="188" width="30" height="30" as="geometry"/>
                </mxCell>
                <mxCell id="FKznoHfliuPDqVIt7DfG-45" value="1" style="text;html=1;align=center;verticalAlign=middle;resizable=0;points=[];autosize=1;strokeColor=none;fillColor=none;" parent="1" vertex="1">
                    <mxGeometry x="300" y="430" width="30" height="30" as="geometry"/>
                </mxCell>
                <mxCell id="FKznoHfliuPDqVIt7DfG-46" value="N" style="text;html=1;align=center;verticalAlign=middle;resizable=0;points=[];autosize=1;strokeColor=none;fillColor=none;" parent="1" vertex="1">
                    <mxGeometry x="300" y="280" width="30" height="30" as="geometry"/>
                </mxCell>
                <mxCell id="2" value="Modelo Conceitual" style="text;html=1;align=center;verticalAlign=middle;resizable=0;points=[];autosize=1;strokeColor=none;fillColor=none;fontSize=48;" vertex="1" parent="1">
                    <mxGeometry x="204" y="-370" width="420" height="70" as="geometry"/>
                </mxCell>
                <mxCell id="3" value="Modelo Lógico" style="text;html=1;align=center;verticalAlign=middle;resizable=0;points=[];autosize=1;strokeColor=none;fillColor=none;fontSize=48;" vertex="1" parent="1">
                    <mxGeometry x="243.5" y="840" width="340" height="70" as="geometry"/>
                </mxCell>
                <mxCell id="4" value="Modelo Físico" style="text;html=1;align=center;verticalAlign=middle;resizable=0;points=[];autosize=1;strokeColor=none;fillColor=none;fontSize=48;" vertex="1" parent="1">
                    <mxGeometry x="253" y="1474" width="320" height="70" as="geometry"/>
                </mxCell>
                <mxCell id="5" value="Estilo" style="shape=table;startSize=30;container=1;collapsible=1;childLayout=tableLayout;fixedRows=1;rowLines=0;fontStyle=1;align=center;resizeLast=1;" vertex="1" parent="1">
                    <mxGeometry x="-380" y="1101.5" width="180" height="90" as="geometry"/>
                </mxCell>
                <mxCell id="6" value="" style="shape=tableRow;horizontal=0;startSize=0;swimlaneHead=0;swimlaneBody=0;fillColor=none;collapsible=0;dropTarget=0;points=[[0,0.5],[1,0.5]];portConstraint=eastwest;top=0;left=0;right=0;bottom=1;" vertex="1" parent="5">
                    <mxGeometry y="30" width="180" height="30" as="geometry"/>
                </mxCell>
                <mxCell id="7" value="PK" style="shape=partialRectangle;connectable=0;fillColor=none;top=0;left=0;bottom=0;right=0;fontStyle=1;overflow=hidden;" vertex="1" parent="6">
                    <mxGeometry width="30" height="30" as="geometry">
                        <mxRectangle width="30" height="30" as="alternateBounds"/>
                    </mxGeometry>
                </mxCell>
                <mxCell id="8" value="IdEstilo" style="shape=partialRectangle;connectable=0;fillColor=none;top=0;left=0;bottom=0;right=0;align=left;spacingLeft=6;fontStyle=5;overflow=hidden;" vertex="1" parent="6">
                    <mxGeometry x="30" width="150" height="30" as="geometry">
                        <mxRectangle width="150" height="30" as="alternateBounds"/>
                    </mxGeometry>
                </mxCell>
                <mxCell id="9" value="" style="shape=tableRow;horizontal=0;startSize=0;swimlaneHead=0;swimlaneBody=0;fillColor=none;collapsible=0;dropTarget=0;points=[[0,0.5],[1,0.5]];portConstraint=eastwest;top=0;left=0;right=0;bottom=0;" vertex="1" parent="5">
                    <mxGeometry y="60" width="180" height="30" as="geometry"/>
                </mxCell>
                <mxCell id="10" value="" style="shape=partialRectangle;connectable=0;fillColor=none;top=0;left=0;bottom=0;right=0;editable=1;overflow=hidden;" vertex="1" parent="9">
                    <mxGeometry width="30" height="30" as="geometry">
                        <mxRectangle width="30" height="30" as="alternateBounds"/>
                    </mxGeometry>
                </mxCell>
                <mxCell id="11" value="Nome" style="shape=partialRectangle;connectable=0;fillColor=none;top=0;left=0;bottom=0;right=0;align=left;spacingLeft=6;overflow=hidden;" vertex="1" parent="9">
                    <mxGeometry x="30" width="150" height="30" as="geometry">
                        <mxRectangle width="150" height="30" as="alternateBounds"/>
                    </mxGeometry>
                </mxCell>
                <mxCell id="18" value="Artista" style="shape=table;startSize=30;container=1;collapsible=1;childLayout=tableLayout;fixedRows=1;rowLines=0;fontStyle=1;align=center;resizeLast=1;" vertex="1" parent="1">
                    <mxGeometry x="540" y="1071.5" width="180" height="90" as="geometry"/>
                </mxCell>
                <mxCell id="19" value="" style="shape=tableRow;horizontal=0;startSize=0;swimlaneHead=0;swimlaneBody=0;fillColor=none;collapsible=0;dropTarget=0;points=[[0,0.5],[1,0.5]];portConstraint=eastwest;top=0;left=0;right=0;bottom=1;" vertex="1" parent="18">
                    <mxGeometry y="30" width="180" height="30" as="geometry"/>
                </mxCell>
                <mxCell id="20" value="PK" style="shape=partialRectangle;connectable=0;fillColor=none;top=0;left=0;bottom=0;right=0;fontStyle=1;overflow=hidden;" vertex="1" parent="19">
                    <mxGeometry width="30" height="30" as="geometry">
                        <mxRectangle width="30" height="30" as="alternateBounds"/>
                    </mxGeometry>
                </mxCell>
                <mxCell id="21" value="IdArtista" style="shape=partialRectangle;connectable=0;fillColor=none;top=0;left=0;bottom=0;right=0;align=left;spacingLeft=6;fontStyle=5;overflow=hidden;" vertex="1" parent="19">
                    <mxGeometry x="30" width="150" height="30" as="geometry">
                        <mxRectangle width="150" height="30" as="alternateBounds"/>
                    </mxGeometry>
                </mxCell>
                <mxCell id="22" value="" style="shape=tableRow;horizontal=0;startSize=0;swimlaneHead=0;swimlaneBody=0;fillColor=none;collapsible=0;dropTarget=0;points=[[0,0.5],[1,0.5]];portConstraint=eastwest;top=0;left=0;right=0;bottom=0;" vertex="1" parent="18">
                    <mxGeometry y="60" width="180" height="30" as="geometry"/>
                </mxCell>
                <mxCell id="23" value="" style="shape=partialRectangle;connectable=0;fillColor=none;top=0;left=0;bottom=0;right=0;editable=1;overflow=hidden;" vertex="1" parent="22">
                    <mxGeometry width="30" height="30" as="geometry">
                        <mxRectangle width="30" height="30" as="alternateBounds"/>
                    </mxGeometry>
                </mxCell>
                <mxCell id="24" value="Artista" style="shape=partialRectangle;connectable=0;fillColor=none;top=0;left=0;bottom=0;right=0;align=left;spacingLeft=6;overflow=hidden;" vertex="1" parent="22">
                    <mxGeometry x="30" width="150" height="30" as="geometry">
                        <mxRectangle width="150" height="30" as="alternateBounds"/>
                    </mxGeometry>
                </mxCell>
                <mxCell id="32" style="edgeStyle=none;html=1;endArrow=none;endFill=0;" edge="1" parent="1" source="31" target="FKznoHfliuPDqVIt7DfG-12">
                    <mxGeometry relative="1" as="geometry"/>
                </mxCell>
                <mxCell id="31" value="Artista" style="ellipse;whiteSpace=wrap;html=1;align=center;" vertex="1" parent="1">
                    <mxGeometry x="250" y="550" width="100" height="40" as="geometry"/>
                </mxCell>
                <mxCell id="33" value="EstiloAlbum" style="shape=table;startSize=30;container=1;collapsible=1;childLayout=tableLayout;fixedRows=1;rowLines=0;fontStyle=1;align=center;resizeLast=1;" vertex="1" parent="1">
                    <mxGeometry x="-80" y="1071.5" width="180" height="119" as="geometry"/>
                </mxCell>
                <mxCell id="34" value="" style="shape=tableRow;horizontal=0;startSize=0;swimlaneHead=0;swimlaneBody=0;fillColor=none;collapsible=0;dropTarget=0;points=[[0,0.5],[1,0.5]];portConstraint=eastwest;top=0;left=0;right=0;bottom=0;" vertex="1" parent="33">
                    <mxGeometry y="30" width="180" height="30" as="geometry"/>
                </mxCell>
                <mxCell id="35" value="PK" style="shape=partialRectangle;connectable=0;fillColor=none;top=0;left=0;bottom=0;right=0;fontStyle=1;overflow=hidden;" vertex="1" parent="34">
                    <mxGeometry width="60" height="30" as="geometry">
                        <mxRectangle width="60" height="30" as="alternateBounds"/>
                    </mxGeometry>
                </mxCell>
                <mxCell id="36" value="IdEstiloAlbum" style="shape=partialRectangle;connectable=0;fillColor=none;top=0;left=0;bottom=0;right=0;align=left;spacingLeft=6;fontStyle=5;overflow=hidden;" vertex="1" parent="34">
                    <mxGeometry x="60" width="120" height="30" as="geometry">
                        <mxRectangle width="120" height="30" as="alternateBounds"/>
                    </mxGeometry>
                </mxCell>
                <mxCell id="46" value="" style="shape=tableRow;horizontal=0;startSize=0;swimlaneHead=0;swimlaneBody=0;fillColor=none;collapsible=0;dropTarget=0;points=[[0,0.5],[1,0.5]];portConstraint=eastwest;top=0;left=0;right=0;bottom=0;" vertex="1" parent="33">
                    <mxGeometry y="60" width="180" height="29" as="geometry"/>
                </mxCell>
                <mxCell id="47" value="FK" style="shape=partialRectangle;connectable=0;fillColor=none;top=0;left=0;bottom=0;right=0;fontStyle=1;overflow=hidden;" vertex="1" parent="46">
                    <mxGeometry width="60" height="29" as="geometry">
                        <mxRectangle width="60" height="29" as="alternateBounds"/>
                    </mxGeometry>
                </mxCell>
                <mxCell id="48" value="IdEstilo" style="shape=partialRectangle;connectable=0;fillColor=none;top=0;left=0;bottom=0;right=0;align=left;spacingLeft=6;fontStyle=5;overflow=hidden;" vertex="1" parent="46">
                    <mxGeometry x="60" width="120" height="29" as="geometry">
                        <mxRectangle width="120" height="29" as="alternateBounds"/>
                    </mxGeometry>
                </mxCell>
                <mxCell id="37" value="" style="shape=tableRow;horizontal=0;startSize=0;swimlaneHead=0;swimlaneBody=0;fillColor=none;collapsible=0;dropTarget=0;points=[[0,0.5],[1,0.5]];portConstraint=eastwest;top=0;left=0;right=0;bottom=1;" vertex="1" parent="33">
                    <mxGeometry y="89" width="180" height="30" as="geometry"/>
                </mxCell>
                <mxCell id="38" value="FK" style="shape=partialRectangle;connectable=0;fillColor=none;top=0;left=0;bottom=0;right=0;fontStyle=1;overflow=hidden;" vertex="1" parent="37">
                    <mxGeometry width="60" height="30" as="geometry">
                        <mxRectangle width="60" height="30" as="alternateBounds"/>
                    </mxGeometry>
                </mxCell>
                <mxCell id="39" value="IdAlbum" style="shape=partialRectangle;connectable=0;fillColor=none;top=0;left=0;bottom=0;right=0;align=left;spacingLeft=6;fontStyle=5;overflow=hidden;" vertex="1" parent="37">
                    <mxGeometry x="60" width="120" height="30" as="geometry">
                        <mxRectangle width="120" height="30" as="alternateBounds"/>
                    </mxGeometry>
                </mxCell>
                <mxCell id="49" value="Album" style="shape=table;startSize=30;container=1;collapsible=1;childLayout=tableLayout;fixedRows=1;rowLines=0;fontStyle=1;align=center;resizeLast=1;" vertex="1" parent="1">
                    <mxGeometry x="260" y="1060" width="180" height="240" as="geometry"/>
                </mxCell>
                <mxCell id="50" value="" style="shape=tableRow;horizontal=0;startSize=0;swimlaneHead=0;swimlaneBody=0;fillColor=none;collapsible=0;dropTarget=0;points=[[0,0.5],[1,0.5]];portConstraint=eastwest;top=0;left=0;right=0;bottom=0;" vertex="1" parent="49">
                    <mxGeometry y="30" width="180" height="30" as="geometry"/>
                </mxCell>
                <mxCell id="51" value="PK" style="shape=partialRectangle;connectable=0;fillColor=none;top=0;left=0;bottom=0;right=0;fontStyle=1;overflow=hidden;" vertex="1" parent="50">
                    <mxGeometry width="60" height="30" as="geometry">
                        <mxRectangle width="60" height="30" as="alternateBounds"/>
                    </mxGeometry>
                </mxCell>
                <mxCell id="52" value="IdAlbum" style="shape=partialRectangle;connectable=0;fillColor=none;top=0;left=0;bottom=0;right=0;align=left;spacingLeft=6;fontStyle=5;overflow=hidden;" vertex="1" parent="50">
                    <mxGeometry x="60" width="120" height="30" as="geometry">
                        <mxRectangle width="120" height="30" as="alternateBounds"/>
                    </mxGeometry>
                </mxCell>
                <mxCell id="53" value="" style="shape=tableRow;horizontal=0;startSize=0;swimlaneHead=0;swimlaneBody=0;fillColor=none;collapsible=0;dropTarget=0;points=[[0,0.5],[1,0.5]];portConstraint=eastwest;top=0;left=0;right=0;bottom=1;" vertex="1" parent="49">
                    <mxGeometry y="60" width="180" height="30" as="geometry"/>
                </mxCell>
                <mxCell id="54" value="FK" style="shape=partialRectangle;connectable=0;fillColor=none;top=0;left=0;bottom=0;right=0;fontStyle=1;overflow=hidden;" vertex="1" parent="53">
                    <mxGeometry width="60" height="30" as="geometry">
                        <mxRectangle width="60" height="30" as="alternateBounds"/>
                    </mxGeometry>
                </mxCell>
                <mxCell id="55" value="IdArtista" style="shape=partialRectangle;connectable=0;fillColor=none;top=0;left=0;bottom=0;right=0;align=left;spacingLeft=6;fontStyle=5;overflow=hidden;" vertex="1" parent="53">
                    <mxGeometry x="60" width="120" height="30" as="geometry">
                        <mxRectangle width="120" height="30" as="alternateBounds"/>
                    </mxGeometry>
                </mxCell>
                <mxCell id="56" value="" style="shape=tableRow;horizontal=0;startSize=0;swimlaneHead=0;swimlaneBody=0;fillColor=none;collapsible=0;dropTarget=0;points=[[0,0.5],[1,0.5]];portConstraint=eastwest;top=0;left=0;right=0;bottom=0;" vertex="1" parent="49">
                    <mxGeometry y="90" width="180" height="30" as="geometry"/>
                </mxCell>
                <mxCell id="57" value="" style="shape=partialRectangle;connectable=0;fillColor=none;top=0;left=0;bottom=0;right=0;editable=1;overflow=hidden;" vertex="1" parent="56">
                    <mxGeometry width="60" height="30" as="geometry">
                        <mxRectangle width="60" height="30" as="alternateBounds"/>
                    </mxGeometry>
                </mxCell>
                <mxCell id="58" value="Titulo" style="shape=partialRectangle;connectable=0;fillColor=none;top=0;left=0;bottom=0;right=0;align=left;spacingLeft=6;overflow=hidden;" vertex="1" parent="56">
                    <mxGeometry x="60" width="120" height="30" as="geometry">
                        <mxRectangle width="120" height="30" as="alternateBounds"/>
                    </mxGeometry>
                </mxCell>
                <mxCell id="62" value="" style="shape=tableRow;horizontal=0;startSize=0;swimlaneHead=0;swimlaneBody=0;fillColor=none;collapsible=0;dropTarget=0;points=[[0,0.5],[1,0.5]];portConstraint=eastwest;top=0;left=0;right=0;bottom=0;" vertex="1" parent="49">
                    <mxGeometry y="120" width="180" height="30" as="geometry"/>
                </mxCell>
                <mxCell id="63" value="" style="shape=partialRectangle;connectable=0;fillColor=none;top=0;left=0;bottom=0;right=0;editable=1;overflow=hidden;" vertex="1" parent="62">
                    <mxGeometry width="60" height="30" as="geometry">
                        <mxRectangle width="60" height="30" as="alternateBounds"/>
                    </mxGeometry>
                </mxCell>
                <mxCell id="64" value="DataLancamento" style="shape=partialRectangle;connectable=0;fillColor=none;top=0;left=0;bottom=0;right=0;align=left;spacingLeft=6;overflow=hidden;" vertex="1" parent="62">
                    <mxGeometry x="60" width="120" height="30" as="geometry">
                        <mxRectangle width="120" height="30" as="alternateBounds"/>
                    </mxGeometry>
                </mxCell>
                <mxCell id="65" value="" style="shape=tableRow;horizontal=0;startSize=0;swimlaneHead=0;swimlaneBody=0;fillColor=none;collapsible=0;dropTarget=0;points=[[0,0.5],[1,0.5]];portConstraint=eastwest;top=0;left=0;right=0;bottom=0;" vertex="1" parent="49">
                    <mxGeometry y="150" width="180" height="30" as="geometry"/>
                </mxCell>
                <mxCell id="66" value="" style="shape=partialRectangle;connectable=0;fillColor=none;top=0;left=0;bottom=0;right=0;editable=1;overflow=hidden;" vertex="1" parent="65">
                    <mxGeometry width="60" height="30" as="geometry">
                        <mxRectangle width="60" height="30" as="alternateBounds"/>
                    </mxGeometry>
                </mxCell>
                <mxCell id="67" value="Localizacao" style="shape=partialRectangle;connectable=0;fillColor=none;top=0;left=0;bottom=0;right=0;align=left;spacingLeft=6;overflow=hidden;" vertex="1" parent="65">
                    <mxGeometry x="60" width="120" height="30" as="geometry">
                        <mxRectangle width="120" height="30" as="alternateBounds"/>
                    </mxGeometry>
                </mxCell>
                <mxCell id="68" value="" style="shape=tableRow;horizontal=0;startSize=0;swimlaneHead=0;swimlaneBody=0;fillColor=none;collapsible=0;dropTarget=0;points=[[0,0.5],[1,0.5]];portConstraint=eastwest;top=0;left=0;right=0;bottom=0;" vertex="1" parent="49">
                    <mxGeometry y="180" width="180" height="30" as="geometry"/>
                </mxCell>
                <mxCell id="69" value="" style="shape=partialRectangle;connectable=0;fillColor=none;top=0;left=0;bottom=0;right=0;editable=1;overflow=hidden;" vertex="1" parent="68">
                    <mxGeometry width="60" height="30" as="geometry">
                        <mxRectangle width="60" height="30" as="alternateBounds"/>
                    </mxGeometry>
                </mxCell>
                <mxCell id="70" value="QuantidadeMinutos" style="shape=partialRectangle;connectable=0;fillColor=none;top=0;left=0;bottom=0;right=0;align=left;spacingLeft=6;overflow=hidden;" vertex="1" parent="68">
                    <mxGeometry x="60" width="120" height="30" as="geometry">
                        <mxRectangle width="120" height="30" as="alternateBounds"/>
                    </mxGeometry>
                </mxCell>
                <mxCell id="71" value="" style="shape=tableRow;horizontal=0;startSize=0;swimlaneHead=0;swimlaneBody=0;fillColor=none;collapsible=0;dropTarget=0;points=[[0,0.5],[1,0.5]];portConstraint=eastwest;top=0;left=0;right=0;bottom=0;" vertex="1" parent="49">
                    <mxGeometry y="210" width="180" height="30" as="geometry"/>
                </mxCell>
                <mxCell id="72" value="" style="shape=partialRectangle;connectable=0;fillColor=none;top=0;left=0;bottom=0;right=0;editable=1;overflow=hidden;" vertex="1" parent="71">
                    <mxGeometry width="60" height="30" as="geometry">
                        <mxRectangle width="60" height="30" as="alternateBounds"/>
                    </mxGeometry>
                </mxCell>
                <mxCell id="73" value="Ativo" style="shape=partialRectangle;connectable=0;fillColor=none;top=0;left=0;bottom=0;right=0;align=left;spacingLeft=6;overflow=hidden;" vertex="1" parent="71">
                    <mxGeometry x="60" width="120" height="30" as="geometry">
                        <mxRectangle width="120" height="30" as="alternateBounds"/>
                    </mxGeometry>
                </mxCell>
                <mxCell id="74" value="" style="edgeStyle=entityRelationEdgeStyle;fontSize=12;html=1;endArrow=ERoneToMany;" edge="1" parent="1" source="6" target="46">
                    <mxGeometry width="100" height="100" relative="1" as="geometry">
                        <mxPoint x="-556" y="1456.5" as="sourcePoint"/>
                        <mxPoint x="-456" y="1356.5" as="targetPoint"/>
                    </mxGeometry>
                </mxCell>
                <mxCell id="75" value="" style="edgeStyle=entityRelationEdgeStyle;fontSize=12;html=1;endArrow=ERoneToMany;" edge="1" parent="1" source="50" target="37">
                    <mxGeometry width="100" height="100" relative="1" as="geometry">
                        <mxPoint x="-566" y="1516.5" as="sourcePoint"/>
                        <mxPoint x="-466" y="1416.5" as="targetPoint"/>
                    </mxGeometry>
                </mxCell>
                <mxCell id="76" value="" style="edgeStyle=entityRelationEdgeStyle;fontSize=12;html=1;endArrow=ERoneToMany;" edge="1" parent="1" source="19" target="53">
                    <mxGeometry width="100" height="100" relative="1" as="geometry">
                        <mxPoint x="-526" y="1886.5" as="sourcePoint"/>
                        <mxPoint x="-426" y="1786.5" as="targetPoint"/>
                    </mxGeometry>
                </mxCell>
                <mxCell id="77" value="TipoPermissao" style="shape=table;startSize=30;container=1;collapsible=1;childLayout=tableLayout;fixedRows=1;rowLines=0;fontStyle=1;align=center;resizeLast=1;" vertex="1" parent="1">
                    <mxGeometry x="920" y="1111" width="180" height="90" as="geometry"/>
                </mxCell>
                <mxCell id="78" value="" style="shape=tableRow;horizontal=0;startSize=0;swimlaneHead=0;swimlaneBody=0;fillColor=none;collapsible=0;dropTarget=0;points=[[0,0.5],[1,0.5]];portConstraint=eastwest;top=0;left=0;right=0;bottom=1;" vertex="1" parent="77">
                    <mxGeometry y="30" width="180" height="30" as="geometry"/>
                </mxCell>
                <mxCell id="79" value="PK" style="shape=partialRectangle;connectable=0;fillColor=none;top=0;left=0;bottom=0;right=0;fontStyle=1;overflow=hidden;" vertex="1" parent="78">
                    <mxGeometry width="30" height="30" as="geometry">
                        <mxRectangle width="30" height="30" as="alternateBounds"/>
                    </mxGeometry>
                </mxCell>
                <mxCell id="80" value="IdTipoPermissao" style="shape=partialRectangle;connectable=0;fillColor=none;top=0;left=0;bottom=0;right=0;align=left;spacingLeft=6;fontStyle=5;overflow=hidden;" vertex="1" parent="78">
                    <mxGeometry x="30" width="150" height="30" as="geometry">
                        <mxRectangle width="150" height="30" as="alternateBounds"/>
                    </mxGeometry>
                </mxCell>
                <mxCell id="81" value="" style="shape=tableRow;horizontal=0;startSize=0;swimlaneHead=0;swimlaneBody=0;fillColor=none;collapsible=0;dropTarget=0;points=[[0,0.5],[1,0.5]];portConstraint=eastwest;top=0;left=0;right=0;bottom=0;" vertex="1" parent="77">
                    <mxGeometry y="60" width="180" height="30" as="geometry"/>
                </mxCell>
                <mxCell id="82" value="" style="shape=partialRectangle;connectable=0;fillColor=none;top=0;left=0;bottom=0;right=0;editable=1;overflow=hidden;" vertex="1" parent="81">
                    <mxGeometry width="30" height="30" as="geometry">
                        <mxRectangle width="30" height="30" as="alternateBounds"/>
                    </mxGeometry>
                </mxCell>
                <mxCell id="83" value="Permissao" style="shape=partialRectangle;connectable=0;fillColor=none;top=0;left=0;bottom=0;right=0;align=left;spacingLeft=6;overflow=hidden;" vertex="1" parent="81">
                    <mxGeometry x="30" width="150" height="30" as="geometry">
                        <mxRectangle width="150" height="30" as="alternateBounds"/>
                    </mxGeometry>
                </mxCell>
                <mxCell id="103" value="" style="edgeStyle=entityRelationEdgeStyle;fontSize=12;html=1;endArrow=ERmandOne;startArrow=ERmandOne;" edge="1" parent="1" source="78" target="108">
                    <mxGeometry width="100" height="100" relative="1" as="geometry">
                        <mxPoint x="800" y="1311" as="sourcePoint"/>
                        <mxPoint x="1470" y="1021" as="targetPoint"/>
                    </mxGeometry>
                </mxCell>
                <mxCell id="104" value="Usuario" style="shape=table;startSize=30;container=1;collapsible=1;childLayout=tableLayout;fixedRows=1;rowLines=0;fontStyle=1;align=center;resizeLast=1;" vertex="1" parent="1">
                    <mxGeometry x="1180" y="1080" width="180" height="180" as="geometry"/>
                </mxCell>
                <mxCell id="105" value="" style="shape=tableRow;horizontal=0;startSize=0;swimlaneHead=0;swimlaneBody=0;fillColor=none;collapsible=0;dropTarget=0;points=[[0,0.5],[1,0.5]];portConstraint=eastwest;top=0;left=0;right=0;bottom=0;" vertex="1" parent="104">
                    <mxGeometry y="30" width="180" height="30" as="geometry"/>
                </mxCell>
                <mxCell id="106" value="PK" style="shape=partialRectangle;connectable=0;fillColor=none;top=0;left=0;bottom=0;right=0;fontStyle=1;overflow=hidden;" vertex="1" parent="105">
                    <mxGeometry width="60" height="30" as="geometry">
                        <mxRectangle width="60" height="30" as="alternateBounds"/>
                    </mxGeometry>
                </mxCell>
                <mxCell id="107" value="IdUsuario" style="shape=partialRectangle;connectable=0;fillColor=none;top=0;left=0;bottom=0;right=0;align=left;spacingLeft=6;fontStyle=5;overflow=hidden;" vertex="1" parent="105">
                    <mxGeometry x="60" width="120" height="30" as="geometry">
                        <mxRectangle width="120" height="30" as="alternateBounds"/>
                    </mxGeometry>
                </mxCell>
                <mxCell id="108" value="" style="shape=tableRow;horizontal=0;startSize=0;swimlaneHead=0;swimlaneBody=0;fillColor=none;collapsible=0;dropTarget=0;points=[[0,0.5],[1,0.5]];portConstraint=eastwest;top=0;left=0;right=0;bottom=1;" vertex="1" parent="104">
                    <mxGeometry y="60" width="180" height="30" as="geometry"/>
                </mxCell>
                <mxCell id="109" value="FK" style="shape=partialRectangle;connectable=0;fillColor=none;top=0;left=0;bottom=0;right=0;fontStyle=1;overflow=hidden;" vertex="1" parent="108">
                    <mxGeometry width="60" height="30" as="geometry">
                        <mxRectangle width="60" height="30" as="alternateBounds"/>
                    </mxGeometry>
                </mxCell>
                <mxCell id="110" value="IdTipoPermissao" style="shape=partialRectangle;connectable=0;fillColor=none;top=0;left=0;bottom=0;right=0;align=left;spacingLeft=6;fontStyle=5;overflow=hidden;" vertex="1" parent="108">
                    <mxGeometry x="60" width="120" height="30" as="geometry">
                        <mxRectangle width="120" height="30" as="alternateBounds"/>
                    </mxGeometry>
                </mxCell>
                <mxCell id="111" value="" style="shape=tableRow;horizontal=0;startSize=0;swimlaneHead=0;swimlaneBody=0;fillColor=none;collapsible=0;dropTarget=0;points=[[0,0.5],[1,0.5]];portConstraint=eastwest;top=0;left=0;right=0;bottom=0;" vertex="1" parent="104">
                    <mxGeometry y="90" width="180" height="30" as="geometry"/>
                </mxCell>
                <mxCell id="112" value="" style="shape=partialRectangle;connectable=0;fillColor=none;top=0;left=0;bottom=0;right=0;editable=1;overflow=hidden;" vertex="1" parent="111">
                    <mxGeometry width="60" height="30" as="geometry">
                        <mxRectangle width="60" height="30" as="alternateBounds"/>
                    </mxGeometry>
                </mxCell>
                <mxCell id="113" value="Nome" style="shape=partialRectangle;connectable=0;fillColor=none;top=0;left=0;bottom=0;right=0;align=left;spacingLeft=6;overflow=hidden;" vertex="1" parent="111">
                    <mxGeometry x="60" width="120" height="30" as="geometry">
                        <mxRectangle width="120" height="30" as="alternateBounds"/>
                    </mxGeometry>
                </mxCell>
                <mxCell id="114" value="" style="shape=tableRow;horizontal=0;startSize=0;swimlaneHead=0;swimlaneBody=0;fillColor=none;collapsible=0;dropTarget=0;points=[[0,0.5],[1,0.5]];portConstraint=eastwest;top=0;left=0;right=0;bottom=0;" vertex="1" parent="104">
                    <mxGeometry y="120" width="180" height="30" as="geometry"/>
                </mxCell>
                <mxCell id="115" value="" style="shape=partialRectangle;connectable=0;fillColor=none;top=0;left=0;bottom=0;right=0;editable=1;overflow=hidden;" vertex="1" parent="114">
                    <mxGeometry width="60" height="30" as="geometry">
                        <mxRectangle width="60" height="30" as="alternateBounds"/>
                    </mxGeometry>
                </mxCell>
                <mxCell id="116" value="Email" style="shape=partialRectangle;connectable=0;fillColor=none;top=0;left=0;bottom=0;right=0;align=left;spacingLeft=6;overflow=hidden;" vertex="1" parent="114">
                    <mxGeometry x="60" width="120" height="30" as="geometry">
                        <mxRectangle width="120" height="30" as="alternateBounds"/>
                    </mxGeometry>
                </mxCell>
                <mxCell id="120" value="" style="shape=tableRow;horizontal=0;startSize=0;swimlaneHead=0;swimlaneBody=0;fillColor=none;collapsible=0;dropTarget=0;points=[[0,0.5],[1,0.5]];portConstraint=eastwest;top=0;left=0;right=0;bottom=0;" vertex="1" parent="104">
                    <mxGeometry y="150" width="180" height="30" as="geometry"/>
                </mxCell>
                <mxCell id="121" value="" style="shape=partialRectangle;connectable=0;fillColor=none;top=0;left=0;bottom=0;right=0;editable=1;overflow=hidden;" vertex="1" parent="120">
                    <mxGeometry width="60" height="30" as="geometry">
                        <mxRectangle width="60" height="30" as="alternateBounds"/>
                    </mxGeometry>
                </mxCell>
                <mxCell id="122" value="Senha" style="shape=partialRectangle;connectable=0;fillColor=none;top=0;left=0;bottom=0;right=0;align=left;spacingLeft=6;overflow=hidden;" vertex="1" parent="120">
                    <mxGeometry x="60" width="120" height="30" as="geometry">
                        <mxRectangle width="120" height="30" as="alternateBounds"/>
                    </mxGeometry>
                </mxCell>
                <mxCell id="123" value="Endereço" style="shape=table;startSize=30;container=1;collapsible=0;childLayout=tableLayout;fontStyle=1;align=center;shadow=1;labelBackgroundColor=none;" vertex="1" parent="1">
                    <mxGeometry x="-397" y="2279" width="1018" height="429" as="geometry"/>
                </mxCell>
                <mxCell id="124" value="" style="shape=tableRow;horizontal=0;startSize=0;swimlaneHead=0;swimlaneBody=0;top=0;left=0;bottom=0;right=0;collapsible=0;dropTarget=0;fillColor=none;points=[[0,0.5],[1,0.5]];portConstraint=eastwest;shadow=1;labelBackgroundColor=none;strokeColor=#050505;fontColor=#000000;" vertex="1" parent="123">
                    <mxGeometry y="30" width="1018" height="57" as="geometry"/>
                </mxCell>
                <mxCell id="125" value="IdEndereco" style="shape=partialRectangle;html=1;whiteSpace=wrap;connectable=0;top=0;left=0;bottom=0;right=0;overflow=hidden;shadow=1;labelBackgroundColor=none;" vertex="1" parent="124">
                    <mxGeometry width="72" height="57" as="geometry">
                        <mxRectangle width="72" height="57" as="alternateBounds"/>
                    </mxGeometry>
                </mxCell>
                <mxCell id="126" value="Bairro" style="shape=partialRectangle;html=1;whiteSpace=wrap;connectable=0;top=0;left=0;bottom=0;right=0;overflow=hidden;shadow=1;labelBackgroundColor=none;" vertex="1" parent="124">
                    <mxGeometry x="72" width="64" height="57" as="geometry">
                        <mxRectangle width="64" height="57" as="alternateBounds"/>
                    </mxGeometry>
                </mxCell>
                <mxCell id="127" value="Cep" style="shape=partialRectangle;html=1;whiteSpace=wrap;connectable=0;top=0;left=0;bottom=0;right=0;overflow=hidden;shadow=1;labelBackgroundColor=none;" vertex="1" parent="124">
                    <mxGeometry x="136" width="147" height="57" as="geometry">
                        <mxRectangle width="147" height="57" as="alternateBounds"/>
                    </mxGeometry>
                </mxCell>
                <mxCell id="128" value="Cidade" style="shape=partialRectangle;html=1;whiteSpace=wrap;connectable=0;top=0;left=0;bottom=0;right=0;overflow=hidden;shadow=1;labelBackgroundColor=none;" vertex="1" parent="124">
                    <mxGeometry x="283" width="147" height="57" as="geometry">
                        <mxRectangle width="147" height="57" as="alternateBounds"/>
                    </mxGeometry>
                </mxCell>
                <mxCell id="129" value="Complemento" style="shape=partialRectangle;html=1;whiteSpace=wrap;connectable=0;top=0;left=0;bottom=0;right=0;overflow=hidden;shadow=1;labelBackgroundColor=none;" vertex="1" parent="124">
                    <mxGeometry x="430" width="147" height="57" as="geometry">
                        <mxRectangle width="147" height="57" as="alternateBounds"/>
                    </mxGeometry>
                </mxCell>
                <mxCell id="130" value="Logradouro" style="shape=partialRectangle;html=1;whiteSpace=wrap;connectable=0;top=0;left=0;bottom=0;right=0;overflow=hidden;shadow=1;labelBackgroundColor=none;" vertex="1" parent="124">
                    <mxGeometry x="577" width="147" height="57" as="geometry">
                        <mxRectangle width="147" height="57" as="alternateBounds"/>
                    </mxGeometry>
                </mxCell>
                <mxCell id="131" value="Numero" style="shape=partialRectangle;html=1;whiteSpace=wrap;connectable=0;top=0;left=0;bottom=0;right=0;overflow=hidden;shadow=1;labelBackgroundColor=none;" vertex="1" parent="124">
                    <mxGeometry x="724" width="147" height="57" as="geometry">
                        <mxRectangle width="147" height="57" as="alternateBounds"/>
                    </mxGeometry>
                </mxCell>
                <mxCell id="132" value="UF" style="shape=partialRectangle;html=1;whiteSpace=wrap;connectable=0;top=0;left=0;bottom=0;right=0;overflow=hidden;shadow=1;labelBackgroundColor=none;" vertex="1" parent="124">
                    <mxGeometry x="871" width="147" height="57" as="geometry">
                        <mxRectangle width="147" height="57" as="alternateBounds"/>
                    </mxGeometry>
                </mxCell>
                <mxCell id="133" value="" style="shape=tableRow;horizontal=0;startSize=0;swimlaneHead=0;swimlaneBody=0;top=0;left=0;bottom=0;right=0;collapsible=0;dropTarget=0;fillColor=none;points=[[0,0.5],[1,0.5]];portConstraint=eastwest;shadow=1;labelBackgroundColor=none;strokeColor=#050505;fontColor=#000000;" vertex="1" parent="123">
                    <mxGeometry y="87" width="1018" height="57" as="geometry"/>
                </mxCell>
                <mxCell id="134" value="1" style="shape=partialRectangle;html=1;whiteSpace=wrap;connectable=0;top=0;left=0;bottom=0;right=0;overflow=hidden;shadow=1;labelBackgroundColor=none;fillColor=#eeeeee;strokeColor=#36393d;fontColor=#252323;" vertex="1" parent="133">
                    <mxGeometry width="72" height="57" as="geometry">
                        <mxRectangle width="72" height="57" as="alternateBounds"/>
                    </mxGeometry>
                </mxCell>
                <mxCell id="135" value="Parque Imperial" style="shape=partialRectangle;html=1;whiteSpace=wrap;connectable=0;top=0;left=0;bottom=0;right=0;overflow=hidden;shadow=1;labelBackgroundColor=none;fillColor=#eeeeee;strokeColor=#36393d;fontColor=#252323;" vertex="1" parent="133">
                    <mxGeometry x="72" width="64" height="57" as="geometry">
                        <mxRectangle width="64" height="57" as="alternateBounds"/>
                    </mxGeometry>
                </mxCell>
                <mxCell id="136" value="04302021" style="shape=partialRectangle;html=1;whiteSpace=wrap;connectable=0;top=0;left=0;bottom=0;right=0;overflow=hidden;shadow=1;labelBackgroundColor=none;fillColor=#eeeeee;strokeColor=#36393d;fontColor=#252323;" vertex="1" parent="133">
                    <mxGeometry x="136" width="147" height="57" as="geometry">
                        <mxRectangle width="147" height="57" as="alternateBounds"/>
                    </mxGeometry>
                </mxCell>
                <mxCell id="137" value="São Paulo" style="shape=partialRectangle;html=1;whiteSpace=wrap;connectable=0;top=0;left=0;bottom=0;right=0;overflow=hidden;shadow=1;labelBackgroundColor=none;fillColor=#eeeeee;strokeColor=#36393d;fontColor=#252323;" vertex="1" parent="133">
                    <mxGeometry x="283" width="147" height="57" as="geometry">
                        <mxRectangle width="147" height="57" as="alternateBounds"/>
                    </mxGeometry>
                </mxCell>
                <mxCell id="138" value="Casa" style="shape=partialRectangle;html=1;whiteSpace=wrap;connectable=0;top=0;left=0;bottom=0;right=0;overflow=hidden;shadow=1;labelBackgroundColor=none;fillColor=#eeeeee;strokeColor=#36393d;fontColor=#252323;" vertex="1" parent="133">
                    <mxGeometry x="430" width="147" height="57" as="geometry">
                        <mxRectangle width="147" height="57" as="alternateBounds"/>
                    </mxGeometry>
                </mxCell>
                <mxCell id="139" value="Rua Paracatu" style="shape=partialRectangle;html=1;whiteSpace=wrap;connectable=0;top=0;left=0;bottom=0;right=0;overflow=hidden;shadow=1;labelBackgroundColor=none;fillColor=#eeeeee;strokeColor=#36393d;fontColor=#252323;" vertex="1" parent="133">
                    <mxGeometry x="577" width="147" height="57" as="geometry">
                        <mxRectangle width="147" height="57" as="alternateBounds"/>
                    </mxGeometry>
                </mxCell>
                <mxCell id="140" value="569" style="shape=partialRectangle;html=1;whiteSpace=wrap;connectable=0;top=0;left=0;bottom=0;right=0;overflow=hidden;shadow=1;labelBackgroundColor=none;fillColor=#eeeeee;strokeColor=#36393d;fontColor=#252323;" vertex="1" parent="133">
                    <mxGeometry x="724" width="147" height="57" as="geometry">
                        <mxRectangle width="147" height="57" as="alternateBounds"/>
                    </mxGeometry>
                </mxCell>
                <mxCell id="141" value="SP" style="shape=partialRectangle;html=1;whiteSpace=wrap;connectable=0;top=0;left=0;bottom=0;right=0;overflow=hidden;shadow=1;labelBackgroundColor=none;fillColor=#eeeeee;strokeColor=#36393d;fontColor=#252323;" vertex="1" parent="133">
                    <mxGeometry x="871" width="147" height="57" as="geometry">
                        <mxRectangle width="147" height="57" as="alternateBounds"/>
                    </mxGeometry>
                </mxCell>
                <mxCell id="142" value="" style="shape=tableRow;horizontal=0;startSize=0;swimlaneHead=0;swimlaneBody=0;top=0;left=0;bottom=0;right=0;collapsible=0;dropTarget=0;fillColor=none;points=[[0,0.5],[1,0.5]];portConstraint=eastwest;shadow=1;labelBackgroundColor=none;strokeColor=#050505;fontColor=#000000;" vertex="1" parent="123">
                    <mxGeometry y="144" width="1018" height="57" as="geometry"/>
                </mxCell>
                <mxCell id="143" value="2" style="shape=partialRectangle;html=1;whiteSpace=wrap;connectable=0;top=0;left=0;bottom=0;right=0;overflow=hidden;shadow=1;labelBackgroundColor=none;fillColor=#eeeeee;strokeColor=#36393d;fontColor=#252323;" vertex="1" parent="142">
                    <mxGeometry width="72" height="57" as="geometry">
                        <mxRectangle width="72" height="57" as="alternateBounds"/>
                    </mxGeometry>
                </mxCell>
                <mxCell id="144" value="Aldeota" style="shape=partialRectangle;html=1;whiteSpace=wrap;connectable=0;top=0;left=0;bottom=0;right=0;overflow=hidden;shadow=1;labelBackgroundColor=none;fillColor=#eeeeee;strokeColor=#36393d;fontColor=#252323;" vertex="1" parent="142">
                    <mxGeometry x="72" width="64" height="57" as="geometry">
                        <mxRectangle width="64" height="57" as="alternateBounds"/>
                    </mxGeometry>
                </mxCell>
                <mxCell id="145" value="60170001" style="shape=partialRectangle;html=1;whiteSpace=wrap;connectable=0;top=0;left=0;bottom=0;right=0;overflow=hidden;shadow=1;labelBackgroundColor=none;fillColor=#eeeeee;strokeColor=#36393d;fontColor=#252323;" vertex="1" parent="142">
                    <mxGeometry x="136" width="147" height="57" as="geometry">
                        <mxRectangle width="147" height="57" as="alternateBounds"/>
                    </mxGeometry>
                </mxCell>
                <mxCell id="146" value="Fortaleza" style="shape=partialRectangle;html=1;whiteSpace=wrap;connectable=0;top=0;left=0;bottom=0;right=0;overflow=hidden;shadow=1;labelBackgroundColor=none;fillColor=#eeeeee;strokeColor=#36393d;fontColor=#252323;" vertex="1" parent="142">
                    <mxGeometry x="283" width="147" height="57" as="geometry">
                        <mxRectangle width="147" height="57" as="alternateBounds"/>
                    </mxGeometry>
                </mxCell>
                <mxCell id="147" value="Bloco 30, Ap 58" style="shape=partialRectangle;html=1;whiteSpace=wrap;connectable=0;top=0;left=0;bottom=0;right=0;overflow=hidden;shadow=1;labelBackgroundColor=none;fillColor=#eeeeee;strokeColor=#36393d;fontColor=#252323;" vertex="1" parent="142">
                    <mxGeometry x="430" width="147" height="57" as="geometry">
                        <mxRectangle width="147" height="57" as="alternateBounds"/>
                    </mxGeometry>
                </mxCell>
                <mxCell id="148" value="Avenida Desembargador Moreira" style="shape=partialRectangle;html=1;whiteSpace=wrap;connectable=0;top=0;left=0;bottom=0;right=0;overflow=hidden;shadow=1;labelBackgroundColor=none;fillColor=#eeeeee;strokeColor=#36393d;fontColor=#252323;" vertex="1" parent="142">
                    <mxGeometry x="577" width="147" height="57" as="geometry">
                        <mxRectangle width="147" height="57" as="alternateBounds"/>
                    </mxGeometry>
                </mxCell>
                <mxCell id="149" value="987" style="shape=partialRectangle;html=1;whiteSpace=wrap;connectable=0;top=0;left=0;bottom=0;right=0;overflow=hidden;shadow=1;labelBackgroundColor=none;fillColor=#eeeeee;strokeColor=#36393d;fontColor=#252323;" vertex="1" parent="142">
                    <mxGeometry x="724" width="147" height="57" as="geometry">
                        <mxRectangle width="147" height="57" as="alternateBounds"/>
                    </mxGeometry>
                </mxCell>
                <mxCell id="150" value="CE" style="shape=partialRectangle;html=1;whiteSpace=wrap;connectable=0;top=0;left=0;bottom=0;right=0;overflow=hidden;shadow=1;labelBackgroundColor=none;fillColor=#eeeeee;strokeColor=#36393d;fontColor=#252323;" vertex="1" parent="142">
                    <mxGeometry x="871" width="147" height="57" as="geometry">
                        <mxRectangle width="147" height="57" as="alternateBounds"/>
                    </mxGeometry>
                </mxCell>
                <mxCell id="151" style="shape=tableRow;horizontal=0;startSize=0;swimlaneHead=0;swimlaneBody=0;top=0;left=0;bottom=0;right=0;collapsible=0;dropTarget=0;fillColor=none;points=[[0,0.5],[1,0.5]];portConstraint=eastwest;shadow=1;labelBackgroundColor=none;strokeColor=#050505;fontColor=#000000;" vertex="1" parent="123">
                    <mxGeometry y="201" width="1018" height="57" as="geometry"/>
                </mxCell>
                <mxCell id="152" value="3" style="shape=partialRectangle;html=1;whiteSpace=wrap;connectable=0;top=0;left=0;bottom=0;right=0;overflow=hidden;shadow=1;labelBackgroundColor=none;fillColor=#eeeeee;strokeColor=#36393d;fontColor=#252323;" vertex="1" parent="151">
                    <mxGeometry width="72" height="57" as="geometry">
                        <mxRectangle width="72" height="57" as="alternateBounds"/>
                    </mxGeometry>
                </mxCell>
                <mxCell id="153" value="Vila Gomes Cardim" style="shape=partialRectangle;html=1;whiteSpace=wrap;connectable=0;top=0;left=0;bottom=0;right=0;overflow=hidden;shadow=1;labelBackgroundColor=none;fillColor=#eeeeee;strokeColor=#36393d;fontColor=#252323;" vertex="1" parent="151">
                    <mxGeometry x="72" width="64" height="57" as="geometry">
                        <mxRectangle width="64" height="57" as="alternateBounds"/>
                    </mxGeometry>
                </mxCell>
                <mxCell id="154" value="03318000" style="shape=partialRectangle;html=1;whiteSpace=wrap;connectable=0;top=0;left=0;bottom=0;right=0;overflow=hidden;shadow=1;labelBackgroundColor=none;fillColor=#eeeeee;strokeColor=#36393d;fontColor=#252323;" vertex="1" parent="151">
                    <mxGeometry x="136" width="147" height="57" as="geometry">
                        <mxRectangle width="147" height="57" as="alternateBounds"/>
                    </mxGeometry>
                </mxCell>
                <mxCell id="155" value="São Paulo" style="shape=partialRectangle;html=1;whiteSpace=wrap;connectable=0;top=0;left=0;bottom=0;right=0;overflow=hidden;shadow=1;labelBackgroundColor=none;fillColor=#eeeeee;strokeColor=#36393d;fontColor=#252323;" vertex="1" parent="151">
                    <mxGeometry x="283" width="147" height="57" as="geometry">
                        <mxRectangle width="147" height="57" as="alternateBounds"/>
                    </mxGeometry>
                </mxCell>
                <mxCell id="156" value="Travessa 34" style="shape=partialRectangle;html=1;whiteSpace=wrap;connectable=0;top=0;left=0;bottom=0;right=0;overflow=hidden;shadow=1;labelBackgroundColor=none;fillColor=#eeeeee;strokeColor=#36393d;fontColor=#252323;" vertex="1" parent="151">
                    <mxGeometry x="430" width="147" height="57" as="geometry">
                        <mxRectangle width="147" height="57" as="alternateBounds"/>
                    </mxGeometry>
                </mxCell>
                <mxCell id="157" value="Rua Serra de Bragança" style="shape=partialRectangle;html=1;whiteSpace=wrap;connectable=0;top=0;left=0;bottom=0;right=0;overflow=hidden;shadow=1;labelBackgroundColor=none;fillColor=#eeeeee;strokeColor=#36393d;fontColor=#252323;" vertex="1" parent="151">
                    <mxGeometry x="577" width="147" height="57" as="geometry">
                        <mxRectangle width="147" height="57" as="alternateBounds"/>
                    </mxGeometry>
                </mxCell>
                <mxCell id="158" value="001" style="shape=partialRectangle;html=1;whiteSpace=wrap;connectable=0;top=0;left=0;bottom=0;right=0;overflow=hidden;shadow=1;labelBackgroundColor=none;fillColor=#eeeeee;strokeColor=#36393d;fontColor=#252323;" vertex="1" parent="151">
                    <mxGeometry x="724" width="147" height="57" as="geometry">
                        <mxRectangle width="147" height="57" as="alternateBounds"/>
                    </mxGeometry>
                </mxCell>
                <mxCell id="159" value="SP" style="shape=partialRectangle;html=1;whiteSpace=wrap;connectable=0;top=0;left=0;bottom=0;right=0;overflow=hidden;shadow=1;labelBackgroundColor=none;fillColor=#eeeeee;strokeColor=#36393d;fontColor=#252323;" vertex="1" parent="151">
                    <mxGeometry x="871" width="147" height="57" as="geometry">
                        <mxRectangle width="147" height="57" as="alternateBounds"/>
                    </mxGeometry>
                </mxCell>
                <mxCell id="160" style="shape=tableRow;horizontal=0;startSize=0;swimlaneHead=0;swimlaneBody=0;top=0;left=0;bottom=0;right=0;collapsible=0;dropTarget=0;fillColor=none;points=[[0,0.5],[1,0.5]];portConstraint=eastwest;shadow=1;labelBackgroundColor=none;strokeColor=#050505;fontColor=#000000;" vertex="1" parent="123">
                    <mxGeometry y="258" width="1018" height="57" as="geometry"/>
                </mxCell>
                <mxCell id="161" value="4" style="shape=partialRectangle;html=1;whiteSpace=wrap;connectable=0;top=0;left=0;bottom=0;right=0;overflow=hidden;shadow=1;labelBackgroundColor=none;fillColor=#eeeeee;strokeColor=#36393d;fontColor=#252323;" vertex="1" parent="160">
                    <mxGeometry width="72" height="57" as="geometry">
                        <mxRectangle width="72" height="57" as="alternateBounds"/>
                    </mxGeometry>
                </mxCell>
                <mxCell id="162" value="Casa Grande" style="shape=partialRectangle;html=1;whiteSpace=wrap;connectable=0;top=0;left=0;bottom=0;right=0;overflow=hidden;shadow=1;labelBackgroundColor=none;fillColor=#eeeeee;strokeColor=#36393d;fontColor=#252323;" vertex="1" parent="160">
                    <mxGeometry x="72" width="64" height="57" as="geometry">
                        <mxRectangle width="64" height="57" as="alternateBounds"/>
                    </mxGeometry>
                </mxCell>
                <mxCell id="163" value="09961660" style="shape=partialRectangle;html=1;whiteSpace=wrap;connectable=0;top=0;left=0;bottom=0;right=0;overflow=hidden;shadow=1;labelBackgroundColor=none;fillColor=#eeeeee;strokeColor=#36393d;fontColor=#252323;" vertex="1" parent="160">
                    <mxGeometry x="136" width="147" height="57" as="geometry">
                        <mxRectangle width="147" height="57" as="alternateBounds"/>
                    </mxGeometry>
                </mxCell>
                <mxCell id="164" value="Diadema" style="shape=partialRectangle;html=1;whiteSpace=wrap;connectable=0;top=0;left=0;bottom=0;right=0;overflow=hidden;shadow=1;labelBackgroundColor=none;fillColor=#eeeeee;strokeColor=#36393d;fontColor=#252323;" vertex="1" parent="160">
                    <mxGeometry x="283" width="147" height="57" as="geometry">
                        <mxRectangle width="147" height="57" as="alternateBounds"/>
                    </mxGeometry>
                </mxCell>
                <mxCell id="165" style="shape=partialRectangle;html=1;whiteSpace=wrap;connectable=0;top=0;left=0;bottom=0;right=0;overflow=hidden;shadow=1;labelBackgroundColor=none;fillColor=#eeeeee;strokeColor=#36393d;fontColor=#252323;" vertex="1" parent="160">
                    <mxGeometry x="430" width="147" height="57" as="geometry">
                        <mxRectangle width="147" height="57" as="alternateBounds"/>
                    </mxGeometry>
                </mxCell>
                <mxCell id="166" value="Rua Barão de Vitória" style="shape=partialRectangle;html=1;whiteSpace=wrap;connectable=0;top=0;left=0;bottom=0;right=0;overflow=hidden;shadow=1;labelBackgroundColor=none;fillColor=#eeeeee;strokeColor=#36393d;fontColor=#252323;" vertex="1" parent="160">
                    <mxGeometry x="577" width="147" height="57" as="geometry">
                        <mxRectangle width="147" height="57" as="alternateBounds"/>
                    </mxGeometry>
                </mxCell>
                <mxCell id="167" value="45436" style="shape=partialRectangle;html=1;whiteSpace=wrap;connectable=0;top=0;left=0;bottom=0;right=0;overflow=hidden;shadow=1;labelBackgroundColor=none;fillColor=#eeeeee;strokeColor=#36393d;fontColor=#252323;" vertex="1" parent="160">
                    <mxGeometry x="724" width="147" height="57" as="geometry">
                        <mxRectangle width="147" height="57" as="alternateBounds"/>
                    </mxGeometry>
                </mxCell>
                <mxCell id="168" value="SP" style="shape=partialRectangle;html=1;whiteSpace=wrap;connectable=0;top=0;left=0;bottom=0;right=0;overflow=hidden;shadow=1;labelBackgroundColor=none;fillColor=#eeeeee;strokeColor=#36393d;fontColor=#252323;" vertex="1" parent="160">
                    <mxGeometry x="871" width="147" height="57" as="geometry">
                        <mxRectangle width="147" height="57" as="alternateBounds"/>
                    </mxGeometry>
                </mxCell>
                <mxCell id="169" style="shape=tableRow;horizontal=0;startSize=0;swimlaneHead=0;swimlaneBody=0;top=0;left=0;bottom=0;right=0;collapsible=0;dropTarget=0;fillColor=none;points=[[0,0.5],[1,0.5]];portConstraint=eastwest;shadow=1;labelBackgroundColor=none;strokeColor=#050505;fontColor=#000000;" vertex="1" parent="123">
                    <mxGeometry y="315" width="1018" height="57" as="geometry"/>
                </mxCell>
                <mxCell id="170" value="5" style="shape=partialRectangle;html=1;whiteSpace=wrap;connectable=0;top=0;left=0;bottom=0;right=0;overflow=hidden;shadow=1;labelBackgroundColor=none;fillColor=#eeeeee;strokeColor=#36393d;fontColor=#252323;" vertex="1" parent="169">
                    <mxGeometry width="72" height="57" as="geometry">
                        <mxRectangle width="72" height="57" as="alternateBounds"/>
                    </mxGeometry>
                </mxCell>
                <mxCell id="171" value="República" style="shape=partialRectangle;html=1;whiteSpace=wrap;connectable=0;top=0;left=0;bottom=0;right=0;overflow=hidden;shadow=1;labelBackgroundColor=none;fillColor=#eeeeee;strokeColor=#36393d;fontColor=#252323;" vertex="1" parent="169">
                    <mxGeometry x="72" width="64" height="57" as="geometry">
                        <mxRectangle width="64" height="57" as="alternateBounds"/>
                    </mxGeometry>
                </mxCell>
                <mxCell id="172" value="01045001" style="shape=partialRectangle;html=1;whiteSpace=wrap;connectable=0;top=0;left=0;bottom=0;right=0;overflow=hidden;shadow=1;labelBackgroundColor=none;fillColor=#eeeeee;strokeColor=#36393d;fontColor=#252323;" vertex="1" parent="169">
                    <mxGeometry x="136" width="147" height="57" as="geometry">
                        <mxRectangle width="147" height="57" as="alternateBounds"/>
                    </mxGeometry>
                </mxCell>
                <mxCell id="173" value="São Paulo" style="shape=partialRectangle;html=1;whiteSpace=wrap;connectable=0;top=0;left=0;bottom=0;right=0;overflow=hidden;shadow=1;labelBackgroundColor=none;fillColor=#eeeeee;strokeColor=#36393d;fontColor=#252323;" vertex="1" parent="169">
                    <mxGeometry x="283" width="147" height="57" as="geometry">
                        <mxRectangle width="147" height="57" as="alternateBounds"/>
                    </mxGeometry>
                </mxCell>
                <mxCell id="174" style="shape=partialRectangle;html=1;whiteSpace=wrap;connectable=0;top=0;left=0;bottom=0;right=0;overflow=hidden;shadow=1;labelBackgroundColor=none;fillColor=#eeeeee;strokeColor=#36393d;fontColor=#252323;" vertex="1" parent="169">
                    <mxGeometry x="430" width="147" height="57" as="geometry">
                        <mxRectangle width="147" height="57" as="alternateBounds"/>
                    </mxGeometry>
                </mxCell>
                <mxCell id="175" value="Praça da República" style="shape=partialRectangle;html=1;whiteSpace=wrap;connectable=0;top=0;left=0;bottom=0;right=0;overflow=hidden;shadow=1;labelBackgroundColor=none;fillColor=#eeeeee;strokeColor=#36393d;fontColor=#252323;" vertex="1" parent="169">
                    <mxGeometry x="577" width="147" height="57" as="geometry">
                        <mxRectangle width="147" height="57" as="alternateBounds"/>
                    </mxGeometry>
                </mxCell>
                <mxCell id="176" value="0" style="shape=partialRectangle;html=1;whiteSpace=wrap;connectable=0;top=0;left=0;bottom=0;right=0;overflow=hidden;shadow=1;labelBackgroundColor=none;fillColor=#eeeeee;strokeColor=#36393d;fontColor=#252323;" vertex="1" parent="169">
                    <mxGeometry x="724" width="147" height="57" as="geometry">
                        <mxRectangle width="147" height="57" as="alternateBounds"/>
                    </mxGeometry>
                </mxCell>
                <mxCell id="177" value="SP" style="shape=partialRectangle;html=1;whiteSpace=wrap;connectable=0;top=0;left=0;bottom=0;right=0;overflow=hidden;shadow=1;labelBackgroundColor=none;fillColor=#eeeeee;strokeColor=#36393d;fontColor=#252323;" vertex="1" parent="169">
                    <mxGeometry x="871" width="147" height="57" as="geometry">
                        <mxRectangle width="147" height="57" as="alternateBounds"/>
                    </mxGeometry>
                </mxCell>
                <mxCell id="178" style="shape=tableRow;horizontal=0;startSize=0;swimlaneHead=0;swimlaneBody=0;top=0;left=0;bottom=0;right=0;collapsible=0;dropTarget=0;fillColor=none;points=[[0,0.5],[1,0.5]];portConstraint=eastwest;shadow=1;labelBackgroundColor=none;strokeColor=#050505;fontColor=#000000;" vertex="1" parent="123">
                    <mxGeometry y="372" width="1018" height="57" as="geometry"/>
                </mxCell>
                <mxCell id="179" value="6" style="shape=partialRectangle;html=1;whiteSpace=wrap;connectable=0;top=0;left=0;bottom=0;right=0;overflow=hidden;shadow=1;labelBackgroundColor=none;fillColor=#eeeeee;strokeColor=#36393d;fontColor=#252323;" vertex="1" parent="178">
                    <mxGeometry width="72" height="57" as="geometry">
                        <mxRectangle width="72" height="57" as="alternateBounds"/>
                    </mxGeometry>
                </mxCell>
                <mxCell id="180" value="Nazaré" style="shape=partialRectangle;html=1;whiteSpace=wrap;connectable=0;top=0;left=0;bottom=0;right=0;overflow=hidden;shadow=1;labelBackgroundColor=none;fillColor=#eeeeee;strokeColor=#36393d;fontColor=#252323;" vertex="1" parent="178">
                    <mxGeometry x="72" width="64" height="57" as="geometry">
                        <mxRectangle width="64" height="57" as="alternateBounds"/>
                    </mxGeometry>
                </mxCell>
                <mxCell id="181" value="66055260" style="shape=partialRectangle;html=1;whiteSpace=wrap;connectable=0;top=0;left=0;bottom=0;right=0;overflow=hidden;shadow=1;labelBackgroundColor=none;fillColor=#eeeeee;strokeColor=#36393d;fontColor=#252323;" vertex="1" parent="178">
                    <mxGeometry x="136" width="147" height="57" as="geometry">
                        <mxRectangle width="147" height="57" as="alternateBounds"/>
                    </mxGeometry>
                </mxCell>
                <mxCell id="182" value="Belém" style="shape=partialRectangle;html=1;whiteSpace=wrap;connectable=0;top=0;left=0;bottom=0;right=0;overflow=hidden;shadow=1;labelBackgroundColor=none;fillColor=#eeeeee;strokeColor=#36393d;fontColor=#252323;" vertex="1" parent="178">
                    <mxGeometry x="283" width="147" height="57" as="geometry">
                        <mxRectangle width="147" height="57" as="alternateBounds"/>
                    </mxGeometry>
                </mxCell>
                <mxCell id="183" style="shape=partialRectangle;html=1;whiteSpace=wrap;connectable=0;top=0;left=0;bottom=0;right=0;overflow=hidden;shadow=1;labelBackgroundColor=none;fillColor=#eeeeee;strokeColor=#36393d;fontColor=#252323;" vertex="1" parent="178">
                    <mxGeometry x="430" width="147" height="57" as="geometry">
                        <mxRectangle width="147" height="57" as="alternateBounds"/>
                    </mxGeometry>
                </mxCell>
                <mxCell id="184" value="Avenida Governador José Malcher" style="shape=partialRectangle;html=1;whiteSpace=wrap;connectable=0;top=0;left=0;bottom=0;right=0;overflow=hidden;shadow=1;labelBackgroundColor=none;fillColor=#eeeeee;strokeColor=#36393d;fontColor=#252323;" vertex="1" parent="178">
                    <mxGeometry x="577" width="147" height="57" as="geometry">
                        <mxRectangle width="147" height="57" as="alternateBounds"/>
                    </mxGeometry>
                </mxCell>
                <mxCell id="185" value="036" style="shape=partialRectangle;html=1;whiteSpace=wrap;connectable=0;top=0;left=0;bottom=0;right=0;overflow=hidden;shadow=1;labelBackgroundColor=none;fillColor=#eeeeee;strokeColor=#36393d;fontColor=#252323;" vertex="1" parent="178">
                    <mxGeometry x="724" width="147" height="57" as="geometry">
                        <mxRectangle width="147" height="57" as="alternateBounds"/>
                    </mxGeometry>
                </mxCell>
                <mxCell id="186" value="PA" style="shape=partialRectangle;html=1;whiteSpace=wrap;connectable=0;top=0;left=0;bottom=0;right=0;overflow=hidden;shadow=1;labelBackgroundColor=none;fillColor=#eeeeee;strokeColor=#36393d;fontColor=#252323;" vertex="1" parent="178">
                    <mxGeometry x="871" width="147" height="57" as="geometry">
                        <mxRectangle width="147" height="57" as="alternateBounds"/>
                    </mxGeometry>
                </mxCell>
                <mxCell id="187" value="Atendimento" style="shape=table;startSize=30;container=1;collapsible=0;childLayout=tableLayout;fontStyle=1;align=center;shadow=1;labelBackgroundColor=none;" vertex="1" parent="1">
                    <mxGeometry x="787.5" y="1985" width="589" height="256" as="geometry"/>
                </mxCell>
                <mxCell id="188" value="" style="shape=tableRow;horizontal=0;startSize=0;swimlaneHead=0;swimlaneBody=0;top=0;left=0;bottom=0;right=0;collapsible=0;dropTarget=0;fillColor=none;points=[[0,0.5],[1,0.5]];portConstraint=eastwest;shadow=1;labelBackgroundColor=none;strokeColor=#050505;fontColor=#000000;" vertex="1" parent="187">
                    <mxGeometry y="30" width="589" height="57" as="geometry"/>
                </mxCell>
                <mxCell id="189" value="IdAtendimento" style="shape=partialRectangle;html=1;whiteSpace=wrap;connectable=0;top=0;left=0;bottom=0;right=0;overflow=hidden;shadow=1;labelBackgroundColor=none;" vertex="1" parent="188">
                    <mxGeometry width="80" height="57" as="geometry">
                        <mxRectangle width="80" height="57" as="alternateBounds"/>
                    </mxGeometry>
                </mxCell>
                <mxCell id="190" value="Protocolo" style="shape=partialRectangle;html=1;whiteSpace=wrap;connectable=0;top=0;left=0;bottom=0;right=0;overflow=hidden;shadow=1;labelBackgroundColor=none;" vertex="1" parent="188">
                    <mxGeometry x="80" width="141" height="57" as="geometry">
                        <mxRectangle width="141" height="57" as="alternateBounds"/>
                    </mxGeometry>
                </mxCell>
                <mxCell id="191" value="DataAtendimento" style="shape=partialRectangle;html=1;whiteSpace=wrap;connectable=0;top=0;left=0;bottom=0;right=0;overflow=hidden;shadow=1;labelBackgroundColor=none;" vertex="1" parent="188">
                    <mxGeometry x="221" width="92" height="57" as="geometry">
                        <mxRectangle width="92" height="57" as="alternateBounds"/>
                    </mxGeometry>
                </mxCell>
                <mxCell id="192" value="HIstoricoClinico" style="shape=partialRectangle;html=1;whiteSpace=wrap;connectable=0;top=0;left=0;bottom=0;right=0;overflow=hidden;shadow=1;labelBackgroundColor=none;" vertex="1" parent="188">
                    <mxGeometry x="313" width="92" height="57" as="geometry">
                        <mxRectangle width="92" height="57" as="alternateBounds"/>
                    </mxGeometry>
                </mxCell>
                <mxCell id="193" value="IdVeterinario" style="shape=partialRectangle;html=1;whiteSpace=wrap;connectable=0;top=0;left=0;bottom=0;right=0;overflow=hidden;shadow=1;labelBackgroundColor=none;" vertex="1" parent="188">
                    <mxGeometry x="405" width="92" height="57" as="geometry">
                        <mxRectangle width="92" height="57" as="alternateBounds"/>
                    </mxGeometry>
                </mxCell>
                <mxCell id="194" value="IdPet" style="shape=partialRectangle;html=1;whiteSpace=wrap;connectable=0;top=0;left=0;bottom=0;right=0;overflow=hidden;shadow=1;labelBackgroundColor=none;" vertex="1" parent="188">
                    <mxGeometry x="497" width="92" height="57" as="geometry">
                        <mxRectangle width="92" height="57" as="alternateBounds"/>
                    </mxGeometry>
                </mxCell>
                <mxCell id="195" value="" style="shape=tableRow;horizontal=0;startSize=0;swimlaneHead=0;swimlaneBody=0;top=0;left=0;bottom=0;right=0;collapsible=0;dropTarget=0;fillColor=none;points=[[0,0.5],[1,0.5]];portConstraint=eastwest;shadow=1;labelBackgroundColor=none;strokeColor=#050505;fontColor=#000000;" vertex="1" parent="187">
                    <mxGeometry y="87" width="589" height="57" as="geometry"/>
                </mxCell>
                <mxCell id="196" value="1" style="shape=partialRectangle;html=1;whiteSpace=wrap;connectable=0;top=0;left=0;bottom=0;right=0;overflow=hidden;shadow=1;labelBackgroundColor=none;fillColor=#eeeeee;strokeColor=#36393d;fontColor=#252323;" vertex="1" parent="195">
                    <mxGeometry width="80" height="57" as="geometry">
                        <mxRectangle width="80" height="57" as="alternateBounds"/>
                    </mxGeometry>
                </mxCell>
                <mxCell id="197" value="00001" style="shape=partialRectangle;html=1;whiteSpace=wrap;connectable=0;top=0;left=0;bottom=0;right=0;overflow=hidden;shadow=1;labelBackgroundColor=none;fillColor=#eeeeee;strokeColor=#36393d;fontColor=#252323;" vertex="1" parent="195">
                    <mxGeometry x="80" width="141" height="57" as="geometry">
                        <mxRectangle width="141" height="57" as="alternateBounds"/>
                    </mxGeometry>
                </mxCell>
                <mxCell id="198" value="27/07/23" style="shape=partialRectangle;html=1;whiteSpace=wrap;connectable=0;top=0;left=0;bottom=0;right=0;overflow=hidden;shadow=1;labelBackgroundColor=none;fillColor=#eeeeee;strokeColor=#36393d;fontColor=#252323;" vertex="1" parent="195">
                    <mxGeometry x="221" width="92" height="57" as="geometry">
                        <mxRectangle width="92" height="57" as="alternateBounds"/>
                    </mxGeometry>
                </mxCell>
                <mxCell id="199" value="Fortes dores na pernas" style="shape=partialRectangle;html=1;whiteSpace=wrap;connectable=0;top=0;left=0;bottom=0;right=0;overflow=hidden;shadow=1;labelBackgroundColor=none;fillColor=#eeeeee;strokeColor=#36393d;fontColor=#252323;" vertex="1" parent="195">
                    <mxGeometry x="313" width="92" height="57" as="geometry">
                        <mxRectangle width="92" height="57" as="alternateBounds"/>
                    </mxGeometry>
                </mxCell>
                <mxCell id="200" value="4" style="shape=partialRectangle;html=1;whiteSpace=wrap;connectable=0;top=0;left=0;bottom=0;right=0;overflow=hidden;shadow=1;labelBackgroundColor=none;fillColor=#eeeeee;strokeColor=#36393d;fontColor=#252323;" vertex="1" parent="195">
                    <mxGeometry x="405" width="92" height="57" as="geometry">
                        <mxRectangle width="92" height="57" as="alternateBounds"/>
                    </mxGeometry>
                </mxCell>
                <mxCell id="201" value="3" style="shape=partialRectangle;html=1;whiteSpace=wrap;connectable=0;top=0;left=0;bottom=0;right=0;overflow=hidden;shadow=1;labelBackgroundColor=none;fillColor=#eeeeee;strokeColor=#36393d;fontColor=#252323;" vertex="1" parent="195">
                    <mxGeometry x="497" width="92" height="57" as="geometry">
                        <mxRectangle width="92" height="57" as="alternateBounds"/>
                    </mxGeometry>
                </mxCell>
                <mxCell id="202" value="" style="shape=tableRow;horizontal=0;startSize=0;swimlaneHead=0;swimlaneBody=0;top=0;left=0;bottom=0;right=0;collapsible=0;dropTarget=0;fillColor=none;points=[[0,0.5],[1,0.5]];portConstraint=eastwest;shadow=1;labelBackgroundColor=none;strokeColor=#050505;fontColor=#000000;" vertex="1" parent="187">
                    <mxGeometry y="144" width="589" height="56" as="geometry"/>
                </mxCell>
                <mxCell id="203" value="2" style="shape=partialRectangle;html=1;whiteSpace=wrap;connectable=0;top=0;left=0;bottom=0;right=0;overflow=hidden;shadow=1;labelBackgroundColor=none;fillColor=#eeeeee;strokeColor=#36393d;fontColor=#252323;" vertex="1" parent="202">
                    <mxGeometry width="80" height="56" as="geometry">
                        <mxRectangle width="80" height="56" as="alternateBounds"/>
                    </mxGeometry>
                </mxCell>
                <mxCell id="204" value="00002" style="shape=partialRectangle;html=1;whiteSpace=wrap;connectable=0;top=0;left=0;bottom=0;right=0;overflow=hidden;shadow=1;labelBackgroundColor=none;fillColor=#eeeeee;strokeColor=#36393d;fontColor=#252323;" vertex="1" parent="202">
                    <mxGeometry x="80" width="141" height="56" as="geometry">
                        <mxRectangle width="141" height="56" as="alternateBounds"/>
                    </mxGeometry>
                </mxCell>
                <mxCell id="205" value="01/08/23" style="shape=partialRectangle;html=1;whiteSpace=wrap;connectable=0;top=0;left=0;bottom=0;right=0;overflow=hidden;shadow=1;labelBackgroundColor=none;fillColor=#eeeeee;strokeColor=#36393d;fontColor=#252323;" vertex="1" parent="202">
                    <mxGeometry x="221" width="92" height="56" as="geometry">
                        <mxRectangle width="92" height="56" as="alternateBounds"/>
                    </mxGeometry>
                </mxCell>
                <mxCell id="206" value="Gato Ficou cego de um olho apos brigar com cachorro" style="shape=partialRectangle;html=1;whiteSpace=wrap;connectable=0;top=0;left=0;bottom=0;right=0;overflow=hidden;shadow=1;labelBackgroundColor=none;fillColor=#eeeeee;strokeColor=#36393d;fontColor=#252323;" vertex="1" parent="202">
                    <mxGeometry x="313" width="92" height="56" as="geometry">
                        <mxRectangle width="92" height="56" as="alternateBounds"/>
                    </mxGeometry>
                </mxCell>
                <mxCell id="207" value="2" style="shape=partialRectangle;html=1;whiteSpace=wrap;connectable=0;top=0;left=0;bottom=0;right=0;overflow=hidden;shadow=1;labelBackgroundColor=none;fillColor=#eeeeee;strokeColor=#36393d;fontColor=#252323;" vertex="1" parent="202">
                    <mxGeometry x="405" width="92" height="56" as="geometry">
                        <mxRectangle width="92" height="56" as="alternateBounds"/>
                    </mxGeometry>
                </mxCell>
                <mxCell id="208" value="1" style="shape=partialRectangle;html=1;whiteSpace=wrap;connectable=0;top=0;left=0;bottom=0;right=0;overflow=hidden;shadow=1;labelBackgroundColor=none;fillColor=#eeeeee;strokeColor=#36393d;fontColor=#252323;" vertex="1" parent="202">
                    <mxGeometry x="497" width="92" height="56" as="geometry">
                        <mxRectangle width="92" height="56" as="alternateBounds"/>
                    </mxGeometry>
                </mxCell>
                <mxCell id="209" style="shape=tableRow;horizontal=0;startSize=0;swimlaneHead=0;swimlaneBody=0;top=0;left=0;bottom=0;right=0;collapsible=0;dropTarget=0;fillColor=none;points=[[0,0.5],[1,0.5]];portConstraint=eastwest;shadow=1;labelBackgroundColor=none;strokeColor=#050505;fontColor=#000000;" vertex="1" parent="187">
                    <mxGeometry y="200" width="589" height="56" as="geometry"/>
                </mxCell>
                <mxCell id="210" value="3" style="shape=partialRectangle;html=1;whiteSpace=wrap;connectable=0;top=0;left=0;bottom=0;right=0;overflow=hidden;shadow=1;labelBackgroundColor=none;fillColor=#eeeeee;strokeColor=#36393d;fontColor=#252323;" vertex="1" parent="209">
                    <mxGeometry width="80" height="56" as="geometry">
                        <mxRectangle width="80" height="56" as="alternateBounds"/>
                    </mxGeometry>
                </mxCell>
                <mxCell id="211" value="00003" style="shape=partialRectangle;html=1;whiteSpace=wrap;connectable=0;top=0;left=0;bottom=0;right=0;overflow=hidden;shadow=1;labelBackgroundColor=none;fillColor=#eeeeee;strokeColor=#36393d;fontColor=#252323;" vertex="1" parent="209">
                    <mxGeometry x="80" width="141" height="56" as="geometry">
                        <mxRectangle width="141" height="56" as="alternateBounds"/>
                    </mxGeometry>
                </mxCell>
                <mxCell id="212" value="14/08/23" style="shape=partialRectangle;html=1;whiteSpace=wrap;connectable=0;top=0;left=0;bottom=0;right=0;overflow=hidden;shadow=1;labelBackgroundColor=none;fillColor=#eeeeee;strokeColor=#36393d;fontColor=#252323;" vertex="1" parent="209">
                    <mxGeometry x="221" width="92" height="56" as="geometry">
                        <mxRectangle width="92" height="56" as="alternateBounds"/>
                    </mxGeometry>
                </mxCell>
                <mxCell id="213" value="Ingeriu aluminio" style="shape=partialRectangle;html=1;whiteSpace=wrap;connectable=0;top=0;left=0;bottom=0;right=0;overflow=hidden;shadow=1;labelBackgroundColor=none;fillColor=#eeeeee;strokeColor=#36393d;fontColor=#252323;" vertex="1" parent="209">
                    <mxGeometry x="313" width="92" height="56" as="geometry">
                        <mxRectangle width="92" height="56" as="alternateBounds"/>
                    </mxGeometry>
                </mxCell>
                <mxCell id="214" value="2" style="shape=partialRectangle;html=1;whiteSpace=wrap;connectable=0;top=0;left=0;bottom=0;right=0;overflow=hidden;shadow=1;labelBackgroundColor=none;fillColor=#eeeeee;strokeColor=#36393d;fontColor=#252323;" vertex="1" parent="209">
                    <mxGeometry x="405" width="92" height="56" as="geometry">
                        <mxRectangle width="92" height="56" as="alternateBounds"/>
                    </mxGeometry>
                </mxCell>
                <mxCell id="215" value="2" style="shape=partialRectangle;html=1;whiteSpace=wrap;connectable=0;top=0;left=0;bottom=0;right=0;overflow=hidden;shadow=1;labelBackgroundColor=none;fillColor=#eeeeee;strokeColor=#36393d;fontColor=#252323;" vertex="1" parent="209">
                    <mxGeometry x="497" width="92" height="56" as="geometry">
                        <mxRectangle width="92" height="56" as="alternateBounds"/>
                    </mxGeometry>
                </mxCell>
                <mxCell id="216" value="Pet" style="shape=table;startSize=30;container=1;collapsible=0;childLayout=tableLayout;fontStyle=1;align=center;shadow=1;labelBackgroundColor=none;" vertex="1" parent="1">
                    <mxGeometry x="-42.5" y="1986" width="810" height="254" as="geometry"/>
                </mxCell>
                <mxCell id="217" value="" style="shape=tableRow;horizontal=0;startSize=0;swimlaneHead=0;swimlaneBody=0;top=0;left=0;bottom=0;right=0;collapsible=0;dropTarget=0;fillColor=none;points=[[0,0.5],[1,0.5]];portConstraint=eastwest;shadow=1;labelBackgroundColor=none;strokeColor=#050505;fontColor=#000000;" vertex="1" parent="216">
                    <mxGeometry y="30" width="810" height="57" as="geometry"/>
                </mxCell>
                <mxCell id="218" value="IdPet" style="shape=partialRectangle;html=1;whiteSpace=wrap;connectable=0;top=0;left=0;bottom=0;right=0;overflow=hidden;shadow=1;labelBackgroundColor=none;" vertex="1" parent="217">
                    <mxGeometry width="80" height="57" as="geometry">
                        <mxRectangle width="80" height="57" as="alternateBounds"/>
                    </mxGeometry>
                </mxCell>
                <mxCell id="219" value="Nome" style="shape=partialRectangle;html=1;whiteSpace=wrap;connectable=0;top=0;left=0;bottom=0;right=0;overflow=hidden;shadow=1;labelBackgroundColor=none;" vertex="1" parent="217">
                    <mxGeometry x="80" width="70" height="57" as="geometry">
                        <mxRectangle width="70" height="57" as="alternateBounds"/>
                    </mxGeometry>
                </mxCell>
                <mxCell id="220" value="DataNascimento" style="shape=partialRectangle;html=1;whiteSpace=wrap;connectable=0;top=0;left=0;bottom=0;right=0;overflow=hidden;shadow=1;labelBackgroundColor=none;" vertex="1" parent="217">
                    <mxGeometry x="150" width="220" height="57" as="geometry">
                        <mxRectangle width="220" height="57" as="alternateBounds"/>
                    </mxGeometry>
                </mxCell>
                <mxCell id="221" value="IdTipoPet" style="shape=partialRectangle;html=1;whiteSpace=wrap;connectable=0;top=0;left=0;bottom=0;right=0;overflow=hidden;shadow=1;labelBackgroundColor=none;" vertex="1" parent="217">
                    <mxGeometry x="370" width="220" height="57" as="geometry">
                        <mxRectangle width="220" height="57" as="alternateBounds"/>
                    </mxGeometry>
                </mxCell>
                <mxCell id="222" value="IdRaca" style="shape=partialRectangle;html=1;whiteSpace=wrap;connectable=0;top=0;left=0;bottom=0;right=0;overflow=hidden;shadow=1;labelBackgroundColor=none;" vertex="1" parent="217">
                    <mxGeometry x="590" width="220" height="57" as="geometry">
                        <mxRectangle width="220" height="57" as="alternateBounds"/>
                    </mxGeometry>
                </mxCell>
                <mxCell id="223" value="" style="shape=tableRow;horizontal=0;startSize=0;swimlaneHead=0;swimlaneBody=0;top=0;left=0;bottom=0;right=0;collapsible=0;dropTarget=0;fillColor=none;points=[[0,0.5],[1,0.5]];portConstraint=eastwest;shadow=1;labelBackgroundColor=none;strokeColor=#050505;fontColor=#000000;" vertex="1" parent="216">
                    <mxGeometry y="87" width="810" height="56" as="geometry"/>
                </mxCell>
                <mxCell id="224" value="1" style="shape=partialRectangle;html=1;whiteSpace=wrap;connectable=0;top=0;left=0;bottom=0;right=0;overflow=hidden;shadow=1;labelBackgroundColor=none;fillColor=#eeeeee;strokeColor=#36393d;fontColor=#252323;" vertex="1" parent="223">
                    <mxGeometry width="80" height="56" as="geometry">
                        <mxRectangle width="80" height="56" as="alternateBounds"/>
                    </mxGeometry>
                </mxCell>
                <mxCell id="225" value="Xxu" style="shape=partialRectangle;html=1;whiteSpace=wrap;connectable=0;top=0;left=0;bottom=0;right=0;overflow=hidden;shadow=1;labelBackgroundColor=none;fillColor=#eeeeee;strokeColor=#36393d;fontColor=#252323;" vertex="1" parent="223">
                    <mxGeometry x="80" width="70" height="56" as="geometry">
                        <mxRectangle width="70" height="56" as="alternateBounds"/>
                    </mxGeometry>
                </mxCell>
                <mxCell id="226" value="1/01/1999" style="shape=partialRectangle;html=1;whiteSpace=wrap;connectable=0;top=0;left=0;bottom=0;right=0;overflow=hidden;shadow=1;labelBackgroundColor=none;fillColor=#eeeeee;strokeColor=#36393d;fontColor=#252323;" vertex="1" parent="223">
                    <mxGeometry x="150" width="220" height="56" as="geometry">
                        <mxRectangle width="220" height="56" as="alternateBounds"/>
                    </mxGeometry>
                </mxCell>
                <mxCell id="227" value="3" style="shape=partialRectangle;html=1;whiteSpace=wrap;connectable=0;top=0;left=0;bottom=0;right=0;overflow=hidden;shadow=1;labelBackgroundColor=none;fillColor=#eeeeee;strokeColor=#36393d;fontColor=#252323;" vertex="1" parent="223">
                    <mxGeometry x="370" width="220" height="56" as="geometry">
                        <mxRectangle width="220" height="56" as="alternateBounds"/>
                    </mxGeometry>
                </mxCell>
                <mxCell id="228" value="2" style="shape=partialRectangle;html=1;whiteSpace=wrap;connectable=0;top=0;left=0;bottom=0;right=0;overflow=hidden;shadow=1;labelBackgroundColor=none;fillColor=#eeeeee;strokeColor=#36393d;fontColor=#252323;" vertex="1" parent="223">
                    <mxGeometry x="590" width="220" height="56" as="geometry">
                        <mxRectangle width="220" height="56" as="alternateBounds"/>
                    </mxGeometry>
                </mxCell>
                <mxCell id="229" value="" style="shape=tableRow;horizontal=0;startSize=0;swimlaneHead=0;swimlaneBody=0;top=0;left=0;bottom=0;right=0;collapsible=0;dropTarget=0;fillColor=none;points=[[0,0.5],[1,0.5]];portConstraint=eastwest;shadow=1;labelBackgroundColor=none;strokeColor=#050505;fontColor=#000000;" vertex="1" parent="216">
                    <mxGeometry y="143" width="810" height="54" as="geometry"/>
                </mxCell>
                <mxCell id="230" value="2" style="shape=partialRectangle;html=1;whiteSpace=wrap;connectable=0;top=0;left=0;bottom=0;right=0;overflow=hidden;shadow=1;labelBackgroundColor=none;fillColor=#eeeeee;strokeColor=#36393d;fontColor=#252323;" vertex="1" parent="229">
                    <mxGeometry width="80" height="54" as="geometry">
                        <mxRectangle width="80" height="54" as="alternateBounds"/>
                    </mxGeometry>
                </mxCell>
                <mxCell id="231" value="Xaxa" style="shape=partialRectangle;html=1;whiteSpace=wrap;connectable=0;top=0;left=0;bottom=0;right=0;overflow=hidden;shadow=1;labelBackgroundColor=none;fillColor=#eeeeee;strokeColor=#36393d;fontColor=#252323;" vertex="1" parent="229">
                    <mxGeometry x="80" width="70" height="54" as="geometry">
                        <mxRectangle width="70" height="54" as="alternateBounds"/>
                    </mxGeometry>
                </mxCell>
                <mxCell id="232" value="15/06/210" style="shape=partialRectangle;html=1;whiteSpace=wrap;connectable=0;top=0;left=0;bottom=0;right=0;overflow=hidden;shadow=1;labelBackgroundColor=none;fillColor=#eeeeee;strokeColor=#36393d;fontColor=#252323;" vertex="1" parent="229">
                    <mxGeometry x="150" width="220" height="54" as="geometry">
                        <mxRectangle width="220" height="54" as="alternateBounds"/>
                    </mxGeometry>
                </mxCell>
                <mxCell id="233" value="2" style="shape=partialRectangle;html=1;whiteSpace=wrap;connectable=0;top=0;left=0;bottom=0;right=0;overflow=hidden;shadow=1;labelBackgroundColor=none;fillColor=#eeeeee;strokeColor=#36393d;fontColor=#252323;" vertex="1" parent="229">
                    <mxGeometry x="370" width="220" height="54" as="geometry">
                        <mxRectangle width="220" height="54" as="alternateBounds"/>
                    </mxGeometry>
                </mxCell>
                <mxCell id="234" value="3" style="shape=partialRectangle;html=1;whiteSpace=wrap;connectable=0;top=0;left=0;bottom=0;right=0;overflow=hidden;shadow=1;labelBackgroundColor=none;fillColor=#eeeeee;strokeColor=#36393d;fontColor=#252323;" vertex="1" parent="229">
                    <mxGeometry x="590" width="220" height="54" as="geometry">
                        <mxRectangle width="220" height="54" as="alternateBounds"/>
                    </mxGeometry>
                </mxCell>
                <mxCell id="235" style="shape=tableRow;horizontal=0;startSize=0;swimlaneHead=0;swimlaneBody=0;top=0;left=0;bottom=0;right=0;collapsible=0;dropTarget=0;fillColor=none;points=[[0,0.5],[1,0.5]];portConstraint=eastwest;shadow=1;labelBackgroundColor=none;strokeColor=#050505;fontColor=#000000;" vertex="1" parent="216">
                    <mxGeometry y="197" width="810" height="57" as="geometry"/>
                </mxCell>
                <mxCell id="236" value="3" style="shape=partialRectangle;html=1;whiteSpace=wrap;connectable=0;top=0;left=0;bottom=0;right=0;overflow=hidden;shadow=1;labelBackgroundColor=none;fillColor=#eeeeee;strokeColor=#36393d;fontColor=#252323;" vertex="1" parent="235">
                    <mxGeometry width="80" height="57" as="geometry">
                        <mxRectangle width="80" height="57" as="alternateBounds"/>
                    </mxGeometry>
                </mxCell>
                <mxCell id="237" value="Salsicha" style="shape=partialRectangle;html=1;whiteSpace=wrap;connectable=0;top=0;left=0;bottom=0;right=0;overflow=hidden;shadow=1;labelBackgroundColor=none;fillColor=#eeeeee;strokeColor=#36393d;fontColor=#252323;" vertex="1" parent="235">
                    <mxGeometry x="80" width="70" height="57" as="geometry">
                        <mxRectangle width="70" height="57" as="alternateBounds"/>
                    </mxGeometry>
                </mxCell>
                <mxCell id="238" value="31/09/2023" style="shape=partialRectangle;html=1;whiteSpace=wrap;connectable=0;top=0;left=0;bottom=0;right=0;overflow=hidden;shadow=1;labelBackgroundColor=none;fillColor=#eeeeee;strokeColor=#36393d;fontColor=#252323;" vertex="1" parent="235">
                    <mxGeometry x="150" width="220" height="57" as="geometry">
                        <mxRectangle width="220" height="57" as="alternateBounds"/>
                    </mxGeometry>
                </mxCell>
                <mxCell id="239" value="1" style="shape=partialRectangle;html=1;whiteSpace=wrap;connectable=0;top=0;left=0;bottom=0;right=0;overflow=hidden;shadow=1;labelBackgroundColor=none;fillColor=#eeeeee;strokeColor=#36393d;fontColor=#252323;" vertex="1" parent="235">
                    <mxGeometry x="370" width="220" height="57" as="geometry">
                        <mxRectangle width="220" height="57" as="alternateBounds"/>
                    </mxGeometry>
                </mxCell>
                <mxCell id="240" value="1" style="shape=partialRectangle;html=1;whiteSpace=wrap;connectable=0;top=0;left=0;bottom=0;right=0;overflow=hidden;shadow=1;labelBackgroundColor=none;fillColor=#eeeeee;strokeColor=#36393d;fontColor=#252323;" vertex="1" parent="235">
                    <mxGeometry x="590" width="220" height="57" as="geometry">
                        <mxRectangle width="220" height="57" as="alternateBounds"/>
                    </mxGeometry>
                </mxCell>
                <mxCell id="241" value="Clinica" style="shape=table;startSize=30;container=1;collapsible=0;childLayout=tableLayout;fontStyle=1;align=center;shadow=1;labelBackgroundColor=none;" vertex="1" parent="1">
                    <mxGeometry x="649" y="2280" width="503" height="256" as="geometry"/>
                </mxCell>
                <mxCell id="242" value="" style="shape=tableRow;horizontal=0;startSize=0;swimlaneHead=0;swimlaneBody=0;top=0;left=0;bottom=0;right=0;collapsible=0;dropTarget=0;fillColor=none;points=[[0,0.5],[1,0.5]];portConstraint=eastwest;shadow=1;labelBackgroundColor=none;strokeColor=#050505;fontColor=#000000;" vertex="1" parent="241">
                    <mxGeometry y="30" width="503" height="57" as="geometry"/>
                </mxCell>
                <mxCell id="243" value="IdClinica" style="shape=partialRectangle;html=1;whiteSpace=wrap;connectable=0;top=0;left=0;bottom=0;right=0;overflow=hidden;shadow=1;labelBackgroundColor=none;" vertex="1" parent="242">
                    <mxGeometry width="80" height="57" as="geometry">
                        <mxRectangle width="80" height="57" as="alternateBounds"/>
                    </mxGeometry>
                </mxCell>
                <mxCell id="244" value="RazaoSocial" style="shape=partialRectangle;html=1;whiteSpace=wrap;connectable=0;top=0;left=0;bottom=0;right=0;overflow=hidden;shadow=1;labelBackgroundColor=none;" vertex="1" parent="242">
                    <mxGeometry x="80" width="141" height="57" as="geometry">
                        <mxRectangle width="141" height="57" as="alternateBounds"/>
                    </mxGeometry>
                </mxCell>
                <mxCell id="245" value="CNPJ" style="shape=partialRectangle;html=1;whiteSpace=wrap;connectable=0;top=0;left=0;bottom=0;right=0;overflow=hidden;shadow=1;labelBackgroundColor=none;" vertex="1" parent="242">
                    <mxGeometry x="221" width="141" height="57" as="geometry">
                        <mxRectangle width="141" height="57" as="alternateBounds"/>
                    </mxGeometry>
                </mxCell>
                <mxCell id="246" value="IdEndereco" style="shape=partialRectangle;html=1;whiteSpace=wrap;connectable=0;top=0;left=0;bottom=0;right=0;overflow=hidden;shadow=1;labelBackgroundColor=none;" vertex="1" parent="242">
                    <mxGeometry x="362" width="141" height="57" as="geometry">
                        <mxRectangle width="141" height="57" as="alternateBounds"/>
                    </mxGeometry>
                </mxCell>
                <mxCell id="247" value="" style="shape=tableRow;horizontal=0;startSize=0;swimlaneHead=0;swimlaneBody=0;top=0;left=0;bottom=0;right=0;collapsible=0;dropTarget=0;fillColor=none;points=[[0,0.5],[1,0.5]];portConstraint=eastwest;shadow=1;labelBackgroundColor=none;strokeColor=#050505;fontColor=#000000;" vertex="1" parent="241">
                    <mxGeometry y="87" width="503" height="57" as="geometry"/>
                </mxCell>
                <mxCell id="248" value="1" style="shape=partialRectangle;html=1;whiteSpace=wrap;connectable=0;top=0;left=0;bottom=0;right=0;overflow=hidden;shadow=1;labelBackgroundColor=none;fillColor=#eeeeee;strokeColor=#36393d;fontColor=#252323;" vertex="1" parent="247">
                    <mxGeometry width="80" height="57" as="geometry">
                        <mxRectangle width="80" height="57" as="alternateBounds"/>
                    </mxGeometry>
                </mxCell>
                <mxCell id="249" value="Dr. Rato" style="shape=partialRectangle;html=1;whiteSpace=wrap;connectable=0;top=0;left=0;bottom=0;right=0;overflow=hidden;shadow=1;labelBackgroundColor=none;fillColor=#eeeeee;strokeColor=#36393d;fontColor=#252323;" vertex="1" parent="247">
                    <mxGeometry x="80" width="141" height="57" as="geometry">
                        <mxRectangle width="141" height="57" as="alternateBounds"/>
                    </mxGeometry>
                </mxCell>
                <mxCell id="250" value="1321165465" style="shape=partialRectangle;html=1;whiteSpace=wrap;connectable=0;top=0;left=0;bottom=0;right=0;overflow=hidden;shadow=1;labelBackgroundColor=none;fillColor=#eeeeee;strokeColor=#36393d;fontColor=#252323;" vertex="1" parent="247">
                    <mxGeometry x="221" width="141" height="57" as="geometry">
                        <mxRectangle width="141" height="57" as="alternateBounds"/>
                    </mxGeometry>
                </mxCell>
                <mxCell id="251" value="6" style="shape=partialRectangle;html=1;whiteSpace=wrap;connectable=0;top=0;left=0;bottom=0;right=0;overflow=hidden;shadow=1;labelBackgroundColor=none;fillColor=#eeeeee;strokeColor=#36393d;fontColor=#252323;" vertex="1" parent="247">
                    <mxGeometry x="362" width="141" height="57" as="geometry">
                        <mxRectangle width="141" height="57" as="alternateBounds"/>
                    </mxGeometry>
                </mxCell>
                <mxCell id="252" value="" style="shape=tableRow;horizontal=0;startSize=0;swimlaneHead=0;swimlaneBody=0;top=0;left=0;bottom=0;right=0;collapsible=0;dropTarget=0;fillColor=none;points=[[0,0.5],[1,0.5]];portConstraint=eastwest;shadow=1;labelBackgroundColor=none;strokeColor=#050505;fontColor=#000000;" vertex="1" parent="241">
                    <mxGeometry y="144" width="503" height="56" as="geometry"/>
                </mxCell>
                <mxCell id="253" value="2" style="shape=partialRectangle;html=1;whiteSpace=wrap;connectable=0;top=0;left=0;bottom=0;right=0;overflow=hidden;shadow=1;labelBackgroundColor=none;fillColor=#eeeeee;strokeColor=#36393d;fontColor=#252323;" vertex="1" parent="252">
                    <mxGeometry width="80" height="56" as="geometry">
                        <mxRectangle width="80" height="56" as="alternateBounds"/>
                    </mxGeometry>
                </mxCell>
                <mxCell id="254" value="Pets" style="shape=partialRectangle;html=1;whiteSpace=wrap;connectable=0;top=0;left=0;bottom=0;right=0;overflow=hidden;shadow=1;labelBackgroundColor=none;fillColor=#eeeeee;strokeColor=#36393d;fontColor=#252323;" vertex="1" parent="252">
                    <mxGeometry x="80" width="141" height="56" as="geometry">
                        <mxRectangle width="141" height="56" as="alternateBounds"/>
                    </mxGeometry>
                </mxCell>
                <mxCell id="255" value="3127553453" style="shape=partialRectangle;html=1;whiteSpace=wrap;connectable=0;top=0;left=0;bottom=0;right=0;overflow=hidden;shadow=1;labelBackgroundColor=none;fillColor=#eeeeee;strokeColor=#36393d;fontColor=#252323;" vertex="1" parent="252">
                    <mxGeometry x="221" width="141" height="56" as="geometry">
                        <mxRectangle width="141" height="56" as="alternateBounds"/>
                    </mxGeometry>
                </mxCell>
                <mxCell id="256" value="4" style="shape=partialRectangle;html=1;whiteSpace=wrap;connectable=0;top=0;left=0;bottom=0;right=0;overflow=hidden;shadow=1;labelBackgroundColor=none;fillColor=#eeeeee;strokeColor=#36393d;fontColor=#252323;" vertex="1" parent="252">
                    <mxGeometry x="362" width="141" height="56" as="geometry">
                        <mxRectangle width="141" height="56" as="alternateBounds"/>
                    </mxGeometry>
                </mxCell>
                <mxCell id="257" style="shape=tableRow;horizontal=0;startSize=0;swimlaneHead=0;swimlaneBody=0;top=0;left=0;bottom=0;right=0;collapsible=0;dropTarget=0;fillColor=none;points=[[0,0.5],[1,0.5]];portConstraint=eastwest;shadow=1;labelBackgroundColor=none;strokeColor=#050505;fontColor=#000000;" vertex="1" parent="241">
                    <mxGeometry y="200" width="503" height="56" as="geometry"/>
                </mxCell>
                <mxCell id="258" value="3" style="shape=partialRectangle;html=1;whiteSpace=wrap;connectable=0;top=0;left=0;bottom=0;right=0;overflow=hidden;shadow=1;labelBackgroundColor=none;fillColor=#eeeeee;strokeColor=#36393d;fontColor=#252323;" vertex="1" parent="257">
                    <mxGeometry width="80" height="56" as="geometry">
                        <mxRectangle width="80" height="56" as="alternateBounds"/>
                    </mxGeometry>
                </mxCell>
                <mxCell id="259" value="Love Pets" style="shape=partialRectangle;html=1;whiteSpace=wrap;connectable=0;top=0;left=0;bottom=0;right=0;overflow=hidden;shadow=1;labelBackgroundColor=none;fillColor=#eeeeee;strokeColor=#36393d;fontColor=#252323;" vertex="1" parent="257">
                    <mxGeometry x="80" width="141" height="56" as="geometry">
                        <mxRectangle width="141" height="56" as="alternateBounds"/>
                    </mxGeometry>
                </mxCell>
                <mxCell id="260" value="6546756785" style="shape=partialRectangle;html=1;whiteSpace=wrap;connectable=0;top=0;left=0;bottom=0;right=0;overflow=hidden;shadow=1;labelBackgroundColor=none;fillColor=#eeeeee;strokeColor=#36393d;fontColor=#252323;" vertex="1" parent="257">
                    <mxGeometry x="221" width="141" height="56" as="geometry">
                        <mxRectangle width="141" height="56" as="alternateBounds"/>
                    </mxGeometry>
                </mxCell>
                <mxCell id="261" value="3" style="shape=partialRectangle;html=1;whiteSpace=wrap;connectable=0;top=0;left=0;bottom=0;right=0;overflow=hidden;shadow=1;labelBackgroundColor=none;fillColor=#eeeeee;strokeColor=#36393d;fontColor=#252323;" vertex="1" parent="257">
                    <mxGeometry x="362" width="141" height="56" as="geometry">
                        <mxRectangle width="141" height="56" as="alternateBounds"/>
                    </mxGeometry>
                </mxCell>
                <mxCell id="262" value="Dono" style="shape=table;startSize=30;container=1;collapsible=0;childLayout=tableLayout;fontStyle=1;align=center;shadow=1;labelBackgroundColor=none;" vertex="1" parent="1">
                    <mxGeometry x="-565.5" y="1983" width="503" height="256" as="geometry"/>
                </mxCell>
                <mxCell id="263" value="" style="shape=tableRow;horizontal=0;startSize=0;swimlaneHead=0;swimlaneBody=0;top=0;left=0;bottom=0;right=0;collapsible=0;dropTarget=0;fillColor=none;points=[[0,0.5],[1,0.5]];portConstraint=eastwest;shadow=1;labelBackgroundColor=none;strokeColor=#050505;fontColor=#000000;" vertex="1" parent="262">
                    <mxGeometry y="30" width="503" height="57" as="geometry"/>
                </mxCell>
                <mxCell id="264" value="IdDOno" style="shape=partialRectangle;html=1;whiteSpace=wrap;connectable=0;top=0;left=0;bottom=0;right=0;overflow=hidden;shadow=1;labelBackgroundColor=none;" vertex="1" parent="263">
                    <mxGeometry width="80" height="57" as="geometry">
                        <mxRectangle width="80" height="57" as="alternateBounds"/>
                    </mxGeometry>
                </mxCell>
                <mxCell id="265" value="Nome" style="shape=partialRectangle;html=1;whiteSpace=wrap;connectable=0;top=0;left=0;bottom=0;right=0;overflow=hidden;shadow=1;labelBackgroundColor=none;" vertex="1" parent="263">
                    <mxGeometry x="80" width="141" height="57" as="geometry">
                        <mxRectangle width="141" height="57" as="alternateBounds"/>
                    </mxGeometry>
                </mxCell>
                <mxCell id="266" value="CPF" style="shape=partialRectangle;html=1;whiteSpace=wrap;connectable=0;top=0;left=0;bottom=0;right=0;overflow=hidden;shadow=1;labelBackgroundColor=none;" vertex="1" parent="263">
                    <mxGeometry x="221" width="141" height="57" as="geometry">
                        <mxRectangle width="141" height="57" as="alternateBounds"/>
                    </mxGeometry>
                </mxCell>
                <mxCell id="267" value="IdEndereco" style="shape=partialRectangle;html=1;whiteSpace=wrap;connectable=0;top=0;left=0;bottom=0;right=0;overflow=hidden;shadow=1;labelBackgroundColor=none;" vertex="1" parent="263">
                    <mxGeometry x="362" width="141" height="57" as="geometry">
                        <mxRectangle width="141" height="57" as="alternateBounds"/>
                    </mxGeometry>
                </mxCell>
                <mxCell id="268" value="" style="shape=tableRow;horizontal=0;startSize=0;swimlaneHead=0;swimlaneBody=0;top=0;left=0;bottom=0;right=0;collapsible=0;dropTarget=0;fillColor=none;points=[[0,0.5],[1,0.5]];portConstraint=eastwest;shadow=1;labelBackgroundColor=none;strokeColor=#050505;fontColor=#000000;" vertex="1" parent="262">
                    <mxGeometry y="87" width="503" height="57" as="geometry"/>
                </mxCell>
                <mxCell id="269" value="1" style="shape=partialRectangle;html=1;whiteSpace=wrap;connectable=0;top=0;left=0;bottom=0;right=0;overflow=hidden;shadow=1;labelBackgroundColor=none;fillColor=#eeeeee;strokeColor=#36393d;fontColor=#252323;" vertex="1" parent="268">
                    <mxGeometry width="80" height="57" as="geometry">
                        <mxRectangle width="80" height="57" as="alternateBounds"/>
                    </mxGeometry>
                </mxCell>
                <mxCell id="270" value="Allan" style="shape=partialRectangle;html=1;whiteSpace=wrap;connectable=0;top=0;left=0;bottom=0;right=0;overflow=hidden;shadow=1;labelBackgroundColor=none;fillColor=#eeeeee;strokeColor=#36393d;fontColor=#252323;" vertex="1" parent="268">
                    <mxGeometry x="80" width="141" height="57" as="geometry">
                        <mxRectangle width="141" height="57" as="alternateBounds"/>
                    </mxGeometry>
                </mxCell>
                <mxCell id="271" value="12345678911" style="shape=partialRectangle;html=1;whiteSpace=wrap;connectable=0;top=0;left=0;bottom=0;right=0;overflow=hidden;shadow=1;labelBackgroundColor=none;fillColor=#eeeeee;strokeColor=#36393d;fontColor=#252323;" vertex="1" parent="268">
                    <mxGeometry x="221" width="141" height="57" as="geometry">
                        <mxRectangle width="141" height="57" as="alternateBounds"/>
                    </mxGeometry>
                </mxCell>
                <mxCell id="272" value="1" style="shape=partialRectangle;html=1;whiteSpace=wrap;connectable=0;top=0;left=0;bottom=0;right=0;overflow=hidden;shadow=1;labelBackgroundColor=none;fillColor=#eeeeee;strokeColor=#36393d;fontColor=#252323;" vertex="1" parent="268">
                    <mxGeometry x="362" width="141" height="57" as="geometry">
                        <mxRectangle width="141" height="57" as="alternateBounds"/>
                    </mxGeometry>
                </mxCell>
                <mxCell id="273" value="" style="shape=tableRow;horizontal=0;startSize=0;swimlaneHead=0;swimlaneBody=0;top=0;left=0;bottom=0;right=0;collapsible=0;dropTarget=0;fillColor=none;points=[[0,0.5],[1,0.5]];portConstraint=eastwest;shadow=1;labelBackgroundColor=none;strokeColor=#050505;fontColor=#000000;" vertex="1" parent="262">
                    <mxGeometry y="144" width="503" height="56" as="geometry"/>
                </mxCell>
                <mxCell id="274" value="2" style="shape=partialRectangle;html=1;whiteSpace=wrap;connectable=0;top=0;left=0;bottom=0;right=0;overflow=hidden;shadow=1;labelBackgroundColor=none;fillColor=#eeeeee;strokeColor=#36393d;fontColor=#252323;" vertex="1" parent="273">
                    <mxGeometry width="80" height="56" as="geometry">
                        <mxRectangle width="80" height="56" as="alternateBounds"/>
                    </mxGeometry>
                </mxCell>
                <mxCell id="275" value="Gabriel" style="shape=partialRectangle;html=1;whiteSpace=wrap;connectable=0;top=0;left=0;bottom=0;right=0;overflow=hidden;shadow=1;labelBackgroundColor=none;fillColor=#eeeeee;strokeColor=#36393d;fontColor=#252323;" vertex="1" parent="273">
                    <mxGeometry x="80" width="141" height="56" as="geometry">
                        <mxRectangle width="141" height="56" as="alternateBounds"/>
                    </mxGeometry>
                </mxCell>
                <mxCell id="276" value="76547564743" style="shape=partialRectangle;html=1;whiteSpace=wrap;connectable=0;top=0;left=0;bottom=0;right=0;overflow=hidden;shadow=1;labelBackgroundColor=none;fillColor=#eeeeee;strokeColor=#36393d;fontColor=#252323;" vertex="1" parent="273">
                    <mxGeometry x="221" width="141" height="56" as="geometry">
                        <mxRectangle width="141" height="56" as="alternateBounds"/>
                    </mxGeometry>
                </mxCell>
                <mxCell id="277" value="2" style="shape=partialRectangle;html=1;whiteSpace=wrap;connectable=0;top=0;left=0;bottom=0;right=0;overflow=hidden;shadow=1;labelBackgroundColor=none;fillColor=#eeeeee;strokeColor=#36393d;fontColor=#252323;" vertex="1" parent="273">
                    <mxGeometry x="362" width="141" height="56" as="geometry">
                        <mxRectangle width="141" height="56" as="alternateBounds"/>
                    </mxGeometry>
                </mxCell>
                <mxCell id="278" value="" style="shape=tableRow;horizontal=0;startSize=0;swimlaneHead=0;swimlaneBody=0;top=0;left=0;bottom=0;right=0;collapsible=0;dropTarget=0;fillColor=none;points=[[0,0.5],[1,0.5]];portConstraint=eastwest;shadow=1;labelBackgroundColor=none;strokeColor=#050505;fontColor=#000000;" vertex="1" parent="262">
                    <mxGeometry y="200" width="503" height="56" as="geometry"/>
                </mxCell>
                <mxCell id="279" value="3" style="shape=partialRectangle;html=1;whiteSpace=wrap;connectable=0;top=0;left=0;bottom=0;right=0;overflow=hidden;shadow=1;labelBackgroundColor=none;fillColor=#eeeeee;strokeColor=#36393d;fontColor=#252323;" vertex="1" parent="278">
                    <mxGeometry width="80" height="56" as="geometry">
                        <mxRectangle width="80" height="56" as="alternateBounds"/>
                    </mxGeometry>
                </mxCell>
                <mxCell id="280" value="Joao" style="shape=partialRectangle;html=1;whiteSpace=wrap;connectable=0;top=0;left=0;bottom=0;right=0;overflow=hidden;shadow=1;labelBackgroundColor=none;fillColor=#eeeeee;strokeColor=#36393d;fontColor=#252323;" vertex="1" parent="278">
                    <mxGeometry x="80" width="141" height="56" as="geometry">
                        <mxRectangle width="141" height="56" as="alternateBounds"/>
                    </mxGeometry>
                </mxCell>
                <mxCell id="281" value="54678678464" style="shape=partialRectangle;html=1;whiteSpace=wrap;connectable=0;top=0;left=0;bottom=0;right=0;overflow=hidden;shadow=1;labelBackgroundColor=none;fillColor=#eeeeee;strokeColor=#36393d;fontColor=#252323;" vertex="1" parent="278">
                    <mxGeometry x="221" width="141" height="56" as="geometry">
                        <mxRectangle width="141" height="56" as="alternateBounds"/>
                    </mxGeometry>
                </mxCell>
                <mxCell id="282" value="1" style="shape=partialRectangle;html=1;whiteSpace=wrap;connectable=0;top=0;left=0;bottom=0;right=0;overflow=hidden;shadow=1;labelBackgroundColor=none;fillColor=#eeeeee;strokeColor=#36393d;fontColor=#252323;" vertex="1" parent="278">
                    <mxGeometry x="362" width="141" height="56" as="geometry">
                        <mxRectangle width="141" height="56" as="alternateBounds"/>
                    </mxGeometry>
                </mxCell>
                <mxCell id="283" value="Veterinario" style="shape=table;startSize=30;container=1;collapsible=0;childLayout=tableLayout;fontStyle=1;align=center;shadow=1;labelBackgroundColor=none;" vertex="1" parent="1">
                    <mxGeometry x="585.75" y="1633" width="503" height="312" as="geometry"/>
                </mxCell>
                <mxCell id="284" value="" style="shape=tableRow;horizontal=0;startSize=0;swimlaneHead=0;swimlaneBody=0;top=0;left=0;bottom=0;right=0;collapsible=0;dropTarget=0;fillColor=none;points=[[0,0.5],[1,0.5]];portConstraint=eastwest;shadow=1;labelBackgroundColor=none;strokeColor=#050505;fontColor=#000000;" vertex="1" parent="283">
                    <mxGeometry y="30" width="503" height="57" as="geometry"/>
                </mxCell>
                <mxCell id="285" value="IdVeterinario" style="shape=partialRectangle;html=1;whiteSpace=wrap;connectable=0;top=0;left=0;bottom=0;right=0;overflow=hidden;shadow=1;labelBackgroundColor=none;" vertex="1" parent="284">
                    <mxGeometry width="80" height="57" as="geometry">
                        <mxRectangle width="80" height="57" as="alternateBounds"/>
                    </mxGeometry>
                </mxCell>
                <mxCell id="286" value="Nome" style="shape=partialRectangle;html=1;whiteSpace=wrap;connectable=0;top=0;left=0;bottom=0;right=0;overflow=hidden;shadow=1;labelBackgroundColor=none;" vertex="1" parent="284">
                    <mxGeometry x="80" width="141" height="57" as="geometry">
                        <mxRectangle width="141" height="57" as="alternateBounds"/>
                    </mxGeometry>
                </mxCell>
                <mxCell id="287" value="CRMV" style="shape=partialRectangle;html=1;whiteSpace=wrap;connectable=0;top=0;left=0;bottom=0;right=0;overflow=hidden;shadow=1;labelBackgroundColor=none;" vertex="1" parent="284">
                    <mxGeometry x="221" width="141" height="57" as="geometry">
                        <mxRectangle width="141" height="57" as="alternateBounds"/>
                    </mxGeometry>
                </mxCell>
                <mxCell id="288" value="IdClinica" style="shape=partialRectangle;html=1;whiteSpace=wrap;connectable=0;top=0;left=0;bottom=0;right=0;overflow=hidden;shadow=1;labelBackgroundColor=none;" vertex="1" parent="284">
                    <mxGeometry x="362" width="141" height="57" as="geometry">
                        <mxRectangle width="141" height="57" as="alternateBounds"/>
                    </mxGeometry>
                </mxCell>
                <mxCell id="289" value="" style="shape=tableRow;horizontal=0;startSize=0;swimlaneHead=0;swimlaneBody=0;top=0;left=0;bottom=0;right=0;collapsible=0;dropTarget=0;fillColor=none;points=[[0,0.5],[1,0.5]];portConstraint=eastwest;shadow=1;labelBackgroundColor=none;strokeColor=#050505;fontColor=#000000;" vertex="1" parent="283">
                    <mxGeometry y="87" width="503" height="57" as="geometry"/>
                </mxCell>
                <mxCell id="290" value="1" style="shape=partialRectangle;html=1;whiteSpace=wrap;connectable=0;top=0;left=0;bottom=0;right=0;overflow=hidden;shadow=1;labelBackgroundColor=none;fillColor=#eeeeee;strokeColor=#36393d;fontColor=#252323;" vertex="1" parent="289">
                    <mxGeometry width="80" height="57" as="geometry">
                        <mxRectangle width="80" height="57" as="alternateBounds"/>
                    </mxGeometry>
                </mxCell>
                <mxCell id="291" value="Jessia" style="shape=partialRectangle;html=1;whiteSpace=wrap;connectable=0;top=0;left=0;bottom=0;right=0;overflow=hidden;shadow=1;labelBackgroundColor=none;fillColor=#eeeeee;strokeColor=#36393d;fontColor=#252323;" vertex="1" parent="289">
                    <mxGeometry x="80" width="141" height="57" as="geometry">
                        <mxRectangle width="141" height="57" as="alternateBounds"/>
                    </mxGeometry>
                </mxCell>
                <mxCell id="292" value="9645643" style="shape=partialRectangle;html=1;whiteSpace=wrap;connectable=0;top=0;left=0;bottom=0;right=0;overflow=hidden;shadow=1;labelBackgroundColor=none;fillColor=#eeeeee;strokeColor=#36393d;fontColor=#252323;" vertex="1" parent="289">
                    <mxGeometry x="221" width="141" height="57" as="geometry">
                        <mxRectangle width="141" height="57" as="alternateBounds"/>
                    </mxGeometry>
                </mxCell>
                <mxCell id="293" value="3" style="shape=partialRectangle;html=1;whiteSpace=wrap;connectable=0;top=0;left=0;bottom=0;right=0;overflow=hidden;shadow=1;labelBackgroundColor=none;fillColor=#eeeeee;strokeColor=#36393d;fontColor=#252323;" vertex="1" parent="289">
                    <mxGeometry x="362" width="141" height="57" as="geometry">
                        <mxRectangle width="141" height="57" as="alternateBounds"/>
                    </mxGeometry>
                </mxCell>
                <mxCell id="294" value="" style="shape=tableRow;horizontal=0;startSize=0;swimlaneHead=0;swimlaneBody=0;top=0;left=0;bottom=0;right=0;collapsible=0;dropTarget=0;fillColor=none;points=[[0,0.5],[1,0.5]];portConstraint=eastwest;shadow=1;labelBackgroundColor=none;strokeColor=#050505;fontColor=#000000;" vertex="1" parent="283">
                    <mxGeometry y="144" width="503" height="56" as="geometry"/>
                </mxCell>
                <mxCell id="295" value="2" style="shape=partialRectangle;html=1;whiteSpace=wrap;connectable=0;top=0;left=0;bottom=0;right=0;overflow=hidden;shadow=1;labelBackgroundColor=none;fillColor=#eeeeee;strokeColor=#36393d;fontColor=#252323;" vertex="1" parent="294">
                    <mxGeometry width="80" height="56" as="geometry">
                        <mxRectangle width="80" height="56" as="alternateBounds"/>
                    </mxGeometry>
                </mxCell>
                <mxCell id="296" value="Bruna" style="shape=partialRectangle;html=1;whiteSpace=wrap;connectable=0;top=0;left=0;bottom=0;right=0;overflow=hidden;shadow=1;labelBackgroundColor=none;fillColor=#eeeeee;strokeColor=#36393d;fontColor=#252323;" vertex="1" parent="294">
                    <mxGeometry x="80" width="141" height="56" as="geometry">
                        <mxRectangle width="141" height="56" as="alternateBounds"/>
                    </mxGeometry>
                </mxCell>
                <mxCell id="297" value="49845496" style="shape=partialRectangle;html=1;whiteSpace=wrap;connectable=0;top=0;left=0;bottom=0;right=0;overflow=hidden;shadow=1;labelBackgroundColor=none;fillColor=#eeeeee;strokeColor=#36393d;fontColor=#252323;" vertex="1" parent="294">
                    <mxGeometry x="221" width="141" height="56" as="geometry">
                        <mxRectangle width="141" height="56" as="alternateBounds"/>
                    </mxGeometry>
                </mxCell>
                <mxCell id="298" value="2" style="shape=partialRectangle;html=1;whiteSpace=wrap;connectable=0;top=0;left=0;bottom=0;right=0;overflow=hidden;shadow=1;labelBackgroundColor=none;fillColor=#eeeeee;strokeColor=#36393d;fontColor=#252323;" vertex="1" parent="294">
                    <mxGeometry x="362" width="141" height="56" as="geometry">
                        <mxRectangle width="141" height="56" as="alternateBounds"/>
                    </mxGeometry>
                </mxCell>
                <mxCell id="299" style="shape=tableRow;horizontal=0;startSize=0;swimlaneHead=0;swimlaneBody=0;top=0;left=0;bottom=0;right=0;collapsible=0;dropTarget=0;fillColor=none;points=[[0,0.5],[1,0.5]];portConstraint=eastwest;shadow=1;labelBackgroundColor=none;strokeColor=#050505;fontColor=#000000;" vertex="1" parent="283">
                    <mxGeometry y="200" width="503" height="56" as="geometry"/>
                </mxCell>
                <mxCell id="300" value="3" style="shape=partialRectangle;html=1;whiteSpace=wrap;connectable=0;top=0;left=0;bottom=0;right=0;overflow=hidden;shadow=1;labelBackgroundColor=none;fillColor=#eeeeee;strokeColor=#36393d;fontColor=#252323;" vertex="1" parent="299">
                    <mxGeometry width="80" height="56" as="geometry">
                        <mxRectangle width="80" height="56" as="alternateBounds"/>
                    </mxGeometry>
                </mxCell>
                <mxCell id="301" value="Bernardo" style="shape=partialRectangle;html=1;whiteSpace=wrap;connectable=0;top=0;left=0;bottom=0;right=0;overflow=hidden;shadow=1;labelBackgroundColor=none;fillColor=#eeeeee;strokeColor=#36393d;fontColor=#252323;" vertex="1" parent="299">
                    <mxGeometry x="80" width="141" height="56" as="geometry">
                        <mxRectangle width="141" height="56" as="alternateBounds"/>
                    </mxGeometry>
                </mxCell>
                <mxCell id="302" value="543648657" style="shape=partialRectangle;html=1;whiteSpace=wrap;connectable=0;top=0;left=0;bottom=0;right=0;overflow=hidden;shadow=1;labelBackgroundColor=none;fillColor=#eeeeee;strokeColor=#36393d;fontColor=#252323;" vertex="1" parent="299">
                    <mxGeometry x="221" width="141" height="56" as="geometry">
                        <mxRectangle width="141" height="56" as="alternateBounds"/>
                    </mxGeometry>
                </mxCell>
                <mxCell id="303" value="1" style="shape=partialRectangle;html=1;whiteSpace=wrap;connectable=0;top=0;left=0;bottom=0;right=0;overflow=hidden;shadow=1;labelBackgroundColor=none;fillColor=#eeeeee;strokeColor=#36393d;fontColor=#252323;" vertex="1" parent="299">
                    <mxGeometry x="362" width="141" height="56" as="geometry">
                        <mxRectangle width="141" height="56" as="alternateBounds"/>
                    </mxGeometry>
                </mxCell>
                <mxCell id="304" style="shape=tableRow;horizontal=0;startSize=0;swimlaneHead=0;swimlaneBody=0;top=0;left=0;bottom=0;right=0;collapsible=0;dropTarget=0;fillColor=none;points=[[0,0.5],[1,0.5]];portConstraint=eastwest;shadow=1;labelBackgroundColor=none;strokeColor=#050505;fontColor=#000000;" vertex="1" parent="283">
                    <mxGeometry y="256" width="503" height="56" as="geometry"/>
                </mxCell>
                <mxCell id="305" value="4" style="shape=partialRectangle;html=1;whiteSpace=wrap;connectable=0;top=0;left=0;bottom=0;right=0;overflow=hidden;shadow=1;labelBackgroundColor=none;fillColor=#eeeeee;strokeColor=#36393d;fontColor=#252323;" vertex="1" parent="304">
                    <mxGeometry width="80" height="56" as="geometry">
                        <mxRectangle width="80" height="56" as="alternateBounds"/>
                    </mxGeometry>
                </mxCell>
                <mxCell id="306" value="Josoe" style="shape=partialRectangle;html=1;whiteSpace=wrap;connectable=0;top=0;left=0;bottom=0;right=0;overflow=hidden;shadow=1;labelBackgroundColor=none;fillColor=#eeeeee;strokeColor=#36393d;fontColor=#252323;" vertex="1" parent="304">
                    <mxGeometry x="80" width="141" height="56" as="geometry">
                        <mxRectangle width="141" height="56" as="alternateBounds"/>
                    </mxGeometry>
                </mxCell>
                <mxCell id="307" value="56786575" style="shape=partialRectangle;html=1;whiteSpace=wrap;connectable=0;top=0;left=0;bottom=0;right=0;overflow=hidden;shadow=1;labelBackgroundColor=none;fillColor=#eeeeee;strokeColor=#36393d;fontColor=#252323;" vertex="1" parent="304">
                    <mxGeometry x="221" width="141" height="56" as="geometry">
                        <mxRectangle width="141" height="56" as="alternateBounds"/>
                    </mxGeometry>
                </mxCell>
                <mxCell id="308" value="3" style="shape=partialRectangle;html=1;whiteSpace=wrap;connectable=0;top=0;left=0;bottom=0;right=0;overflow=hidden;shadow=1;labelBackgroundColor=none;fillColor=#eeeeee;strokeColor=#36393d;fontColor=#252323;" vertex="1" parent="304">
                    <mxGeometry x="362" width="141" height="56" as="geometry">
                        <mxRectangle width="141" height="56" as="alternateBounds"/>
                    </mxGeometry>
                </mxCell>
                <mxCell id="309" value="TipoPet" style="shape=table;startSize=30;container=1;collapsible=0;childLayout=tableLayout;fontStyle=1;align=center;shadow=1;labelBackgroundColor=none;" vertex="1" parent="1">
                    <mxGeometry x="72.75" y="1632" width="221" height="256" as="geometry"/>
                </mxCell>
                <mxCell id="310" value="" style="shape=tableRow;horizontal=0;startSize=0;swimlaneHead=0;swimlaneBody=0;top=0;left=0;bottom=0;right=0;collapsible=0;dropTarget=0;fillColor=none;points=[[0,0.5],[1,0.5]];portConstraint=eastwest;shadow=1;labelBackgroundColor=none;strokeColor=#050505;fontColor=#000000;" vertex="1" parent="309">
                    <mxGeometry y="30" width="221" height="57" as="geometry"/>
                </mxCell>
                <mxCell id="311" value="IdTipoPet" style="shape=partialRectangle;html=1;whiteSpace=wrap;connectable=0;top=0;left=0;bottom=0;right=0;overflow=hidden;shadow=1;labelBackgroundColor=none;" vertex="1" parent="310">
                    <mxGeometry width="80" height="57" as="geometry">
                        <mxRectangle width="80" height="57" as="alternateBounds"/>
                    </mxGeometry>
                </mxCell>
                <mxCell id="312" value="Tipo" style="shape=partialRectangle;html=1;whiteSpace=wrap;connectable=0;top=0;left=0;bottom=0;right=0;overflow=hidden;shadow=1;labelBackgroundColor=none;" vertex="1" parent="310">
                    <mxGeometry x="80" width="141" height="57" as="geometry">
                        <mxRectangle width="141" height="57" as="alternateBounds"/>
                    </mxGeometry>
                </mxCell>
                <mxCell id="313" value="" style="shape=tableRow;horizontal=0;startSize=0;swimlaneHead=0;swimlaneBody=0;top=0;left=0;bottom=0;right=0;collapsible=0;dropTarget=0;fillColor=none;points=[[0,0.5],[1,0.5]];portConstraint=eastwest;shadow=1;labelBackgroundColor=none;strokeColor=#050505;fontColor=#000000;" vertex="1" parent="309">
                    <mxGeometry y="87" width="221" height="57" as="geometry"/>
                </mxCell>
                <mxCell id="314" value="1" style="shape=partialRectangle;html=1;whiteSpace=wrap;connectable=0;top=0;left=0;bottom=0;right=0;overflow=hidden;shadow=1;labelBackgroundColor=none;fillColor=#eeeeee;strokeColor=#36393d;fontColor=#252323;" vertex="1" parent="313">
                    <mxGeometry width="80" height="57" as="geometry">
                        <mxRectangle width="80" height="57" as="alternateBounds"/>
                    </mxGeometry>
                </mxCell>
                <mxCell id="315" value="Cachorro" style="shape=partialRectangle;html=1;whiteSpace=wrap;connectable=0;top=0;left=0;bottom=0;right=0;overflow=hidden;shadow=1;labelBackgroundColor=none;fillColor=#eeeeee;strokeColor=#36393d;fontColor=#252323;" vertex="1" parent="313">
                    <mxGeometry x="80" width="141" height="57" as="geometry">
                        <mxRectangle width="141" height="57" as="alternateBounds"/>
                    </mxGeometry>
                </mxCell>
                <mxCell id="316" value="" style="shape=tableRow;horizontal=0;startSize=0;swimlaneHead=0;swimlaneBody=0;top=0;left=0;bottom=0;right=0;collapsible=0;dropTarget=0;fillColor=none;points=[[0,0.5],[1,0.5]];portConstraint=eastwest;shadow=1;labelBackgroundColor=none;strokeColor=#050505;fontColor=#000000;" vertex="1" parent="309">
                    <mxGeometry y="144" width="221" height="56" as="geometry"/>
                </mxCell>
                <mxCell id="317" value="2" style="shape=partialRectangle;html=1;whiteSpace=wrap;connectable=0;top=0;left=0;bottom=0;right=0;overflow=hidden;shadow=1;labelBackgroundColor=none;fillColor=#eeeeee;strokeColor=#36393d;fontColor=#252323;" vertex="1" parent="316">
                    <mxGeometry width="80" height="56" as="geometry">
                        <mxRectangle width="80" height="56" as="alternateBounds"/>
                    </mxGeometry>
                </mxCell>
                <mxCell id="318" value="Pato" style="shape=partialRectangle;html=1;whiteSpace=wrap;connectable=0;top=0;left=0;bottom=0;right=0;overflow=hidden;shadow=1;labelBackgroundColor=none;fillColor=#eeeeee;strokeColor=#36393d;fontColor=#252323;" vertex="1" parent="316">
                    <mxGeometry x="80" width="141" height="56" as="geometry">
                        <mxRectangle width="141" height="56" as="alternateBounds"/>
                    </mxGeometry>
                </mxCell>
                <mxCell id="319" style="shape=tableRow;horizontal=0;startSize=0;swimlaneHead=0;swimlaneBody=0;top=0;left=0;bottom=0;right=0;collapsible=0;dropTarget=0;fillColor=none;points=[[0,0.5],[1,0.5]];portConstraint=eastwest;shadow=1;labelBackgroundColor=none;strokeColor=#050505;fontColor=#000000;" vertex="1" parent="309">
                    <mxGeometry y="200" width="221" height="56" as="geometry"/>
                </mxCell>
                <mxCell id="320" value="3" style="shape=partialRectangle;html=1;whiteSpace=wrap;connectable=0;top=0;left=0;bottom=0;right=0;overflow=hidden;shadow=1;labelBackgroundColor=none;fillColor=#eeeeee;strokeColor=#36393d;fontColor=#252323;" vertex="1" parent="319">
                    <mxGeometry width="80" height="56" as="geometry">
                        <mxRectangle width="80" height="56" as="alternateBounds"/>
                    </mxGeometry>
                </mxCell>
                <mxCell id="321" value="Papagaio" style="shape=partialRectangle;html=1;whiteSpace=wrap;connectable=0;top=0;left=0;bottom=0;right=0;overflow=hidden;shadow=1;labelBackgroundColor=none;fillColor=#eeeeee;strokeColor=#36393d;fontColor=#252323;" vertex="1" parent="319">
                    <mxGeometry x="80" width="141" height="56" as="geometry">
                        <mxRectangle width="141" height="56" as="alternateBounds"/>
                    </mxGeometry>
                </mxCell>
                <mxCell id="322" value="Raca" style="shape=table;startSize=30;container=1;collapsible=0;childLayout=tableLayout;fontStyle=1;align=center;shadow=1;labelBackgroundColor=none;" vertex="1" parent="1">
                    <mxGeometry x="329.75" y="1631" width="221" height="256" as="geometry"/>
                </mxCell>
                <mxCell id="323" value="" style="shape=tableRow;horizontal=0;startSize=0;swimlaneHead=0;swimlaneBody=0;top=0;left=0;bottom=0;right=0;collapsible=0;dropTarget=0;fillColor=none;points=[[0,0.5],[1,0.5]];portConstraint=eastwest;shadow=1;labelBackgroundColor=none;strokeColor=#050505;fontColor=#000000;" vertex="1" parent="322">
                    <mxGeometry y="30" width="221" height="57" as="geometry"/>
                </mxCell>
                <mxCell id="324" value="IdRaca" style="shape=partialRectangle;html=1;whiteSpace=wrap;connectable=0;top=0;left=0;bottom=0;right=0;overflow=hidden;shadow=1;labelBackgroundColor=none;" vertex="1" parent="323">
                    <mxGeometry width="80" height="57" as="geometry">
                        <mxRectangle width="80" height="57" as="alternateBounds"/>
                    </mxGeometry>
                </mxCell>
                <mxCell id="325" value="Raca" style="shape=partialRectangle;html=1;whiteSpace=wrap;connectable=0;top=0;left=0;bottom=0;right=0;overflow=hidden;shadow=1;labelBackgroundColor=none;" vertex="1" parent="323">
                    <mxGeometry x="80" width="141" height="57" as="geometry">
                        <mxRectangle width="141" height="57" as="alternateBounds"/>
                    </mxGeometry>
                </mxCell>
                <mxCell id="326" value="" style="shape=tableRow;horizontal=0;startSize=0;swimlaneHead=0;swimlaneBody=0;top=0;left=0;bottom=0;right=0;collapsible=0;dropTarget=0;fillColor=none;points=[[0,0.5],[1,0.5]];portConstraint=eastwest;shadow=1;labelBackgroundColor=none;strokeColor=#050505;fontColor=#000000;" vertex="1" parent="322">
                    <mxGeometry y="87" width="221" height="57" as="geometry"/>
                </mxCell>
                <mxCell id="327" value="1" style="shape=partialRectangle;html=1;whiteSpace=wrap;connectable=0;top=0;left=0;bottom=0;right=0;overflow=hidden;shadow=1;labelBackgroundColor=none;fillColor=#eeeeee;strokeColor=#36393d;fontColor=#252323;" vertex="1" parent="326">
                    <mxGeometry width="80" height="57" as="geometry">
                        <mxRectangle width="80" height="57" as="alternateBounds"/>
                    </mxGeometry>
                </mxCell>
                <mxCell id="328" value="rottweiler" style="shape=partialRectangle;html=1;whiteSpace=wrap;connectable=0;top=0;left=0;bottom=0;right=0;overflow=hidden;shadow=1;labelBackgroundColor=none;fillColor=#eeeeee;strokeColor=#36393d;fontColor=#252323;" vertex="1" parent="326">
                    <mxGeometry x="80" width="141" height="57" as="geometry">
                        <mxRectangle width="141" height="57" as="alternateBounds"/>
                    </mxGeometry>
                </mxCell>
                <mxCell id="329" style="shape=tableRow;horizontal=0;startSize=0;swimlaneHead=0;swimlaneBody=0;top=0;left=0;bottom=0;right=0;collapsible=0;dropTarget=0;fillColor=none;points=[[0,0.5],[1,0.5]];portConstraint=eastwest;shadow=1;labelBackgroundColor=none;strokeColor=#050505;fontColor=#000000;" vertex="1" parent="322">
                    <mxGeometry y="144" width="221" height="56" as="geometry"/>
                </mxCell>
                <mxCell id="330" value="2" style="shape=partialRectangle;html=1;whiteSpace=wrap;connectable=0;top=0;left=0;bottom=0;right=0;overflow=hidden;shadow=1;labelBackgroundColor=none;fillColor=#eeeeee;strokeColor=#36393d;fontColor=#252323;" vertex="1" parent="329">
                    <mxGeometry width="80" height="56" as="geometry">
                        <mxRectangle width="80" height="56" as="alternateBounds"/>
                    </mxGeometry>
                </mxCell>
                <mxCell id="331" value="Papagaio Verdadeiro" style="shape=partialRectangle;html=1;whiteSpace=wrap;connectable=0;top=0;left=0;bottom=0;right=0;overflow=hidden;shadow=1;labelBackgroundColor=none;fillColor=#eeeeee;strokeColor=#36393d;fontColor=#252323;" vertex="1" parent="329">
                    <mxGeometry x="80" width="141" height="56" as="geometry">
                        <mxRectangle width="141" height="56" as="alternateBounds"/>
                    </mxGeometry>
                </mxCell>
                <mxCell id="332" style="shape=tableRow;horizontal=0;startSize=0;swimlaneHead=0;swimlaneBody=0;top=0;left=0;bottom=0;right=0;collapsible=0;dropTarget=0;fillColor=none;points=[[0,0.5],[1,0.5]];portConstraint=eastwest;shadow=1;labelBackgroundColor=none;strokeColor=#050505;fontColor=#000000;" vertex="1" parent="322">
                    <mxGeometry y="200" width="221" height="56" as="geometry"/>
                </mxCell>
                <mxCell id="333" value="3" style="shape=partialRectangle;html=1;whiteSpace=wrap;connectable=0;top=0;left=0;bottom=0;right=0;overflow=hidden;shadow=1;labelBackgroundColor=none;fillColor=#eeeeee;strokeColor=#36393d;fontColor=#252323;" vertex="1" parent="332">
                    <mxGeometry width="80" height="56" as="geometry">
                        <mxRectangle width="80" height="56" as="alternateBounds"/>
                    </mxGeometry>
                </mxCell>
                <mxCell id="334" value="Marreca-Parda" style="shape=partialRectangle;html=1;whiteSpace=wrap;connectable=0;top=0;left=0;bottom=0;right=0;overflow=hidden;shadow=1;labelBackgroundColor=none;fillColor=#eeeeee;strokeColor=#36393d;fontColor=#252323;" vertex="1" parent="332">
                    <mxGeometry x="80" width="141" height="56" as="geometry">
                        <mxRectangle width="141" height="56" as="alternateBounds"/>
                    </mxGeometry>
                </mxCell>
                <mxCell id="335" value="PetDono" style="shape=table;startSize=30;container=1;collapsible=0;childLayout=tableLayout;fontStyle=1;align=center;shadow=1;labelBackgroundColor=none;" vertex="1" parent="1">
                    <mxGeometry x="-324.25" y="1630" width="362" height="312" as="geometry"/>
                </mxCell>
                <mxCell id="336" value="" style="shape=tableRow;horizontal=0;startSize=0;swimlaneHead=0;swimlaneBody=0;top=0;left=0;bottom=0;right=0;collapsible=0;dropTarget=0;fillColor=none;points=[[0,0.5],[1,0.5]];portConstraint=eastwest;shadow=1;labelBackgroundColor=none;strokeColor=#050505;fontColor=#000000;" vertex="1" parent="335">
                    <mxGeometry y="30" width="362" height="57" as="geometry"/>
                </mxCell>
                <mxCell id="337" value="IdPetDono" style="shape=partialRectangle;html=1;whiteSpace=wrap;connectable=0;top=0;left=0;bottom=0;right=0;overflow=hidden;shadow=1;labelBackgroundColor=none;" vertex="1" parent="336">
                    <mxGeometry width="80" height="57" as="geometry">
                        <mxRectangle width="80" height="57" as="alternateBounds"/>
                    </mxGeometry>
                </mxCell>
                <mxCell id="338" value="IdPet" style="shape=partialRectangle;html=1;whiteSpace=wrap;connectable=0;top=0;left=0;bottom=0;right=0;overflow=hidden;shadow=1;labelBackgroundColor=none;" vertex="1" parent="336">
                    <mxGeometry x="80" width="141" height="57" as="geometry">
                        <mxRectangle width="141" height="57" as="alternateBounds"/>
                    </mxGeometry>
                </mxCell>
                <mxCell id="339" value="IdDono" style="shape=partialRectangle;html=1;whiteSpace=wrap;connectable=0;top=0;left=0;bottom=0;right=0;overflow=hidden;shadow=1;labelBackgroundColor=none;" vertex="1" parent="336">
                    <mxGeometry x="221" width="141" height="57" as="geometry">
                        <mxRectangle width="141" height="57" as="alternateBounds"/>
                    </mxGeometry>
                </mxCell>
                <mxCell id="340" value="" style="shape=tableRow;horizontal=0;startSize=0;swimlaneHead=0;swimlaneBody=0;top=0;left=0;bottom=0;right=0;collapsible=0;dropTarget=0;fillColor=none;points=[[0,0.5],[1,0.5]];portConstraint=eastwest;shadow=1;labelBackgroundColor=none;strokeColor=#050505;fontColor=#000000;" vertex="1" parent="335">
                    <mxGeometry y="87" width="362" height="57" as="geometry"/>
                </mxCell>
                <mxCell id="341" value="1" style="shape=partialRectangle;html=1;whiteSpace=wrap;connectable=0;top=0;left=0;bottom=0;right=0;overflow=hidden;shadow=1;labelBackgroundColor=none;fillColor=#eeeeee;strokeColor=#36393d;fontColor=#252323;" vertex="1" parent="340">
                    <mxGeometry width="80" height="57" as="geometry">
                        <mxRectangle width="80" height="57" as="alternateBounds"/>
                    </mxGeometry>
                </mxCell>
                <mxCell id="342" value="1" style="shape=partialRectangle;html=1;whiteSpace=wrap;connectable=0;top=0;left=0;bottom=0;right=0;overflow=hidden;shadow=1;labelBackgroundColor=none;fillColor=#eeeeee;strokeColor=#36393d;fontColor=#252323;" vertex="1" parent="340">
                    <mxGeometry x="80" width="141" height="57" as="geometry">
                        <mxRectangle width="141" height="57" as="alternateBounds"/>
                    </mxGeometry>
                </mxCell>
                <mxCell id="343" value="1" style="shape=partialRectangle;html=1;whiteSpace=wrap;connectable=0;top=0;left=0;bottom=0;right=0;overflow=hidden;shadow=1;labelBackgroundColor=none;fillColor=#eeeeee;strokeColor=#36393d;fontColor=#252323;" vertex="1" parent="340">
                    <mxGeometry x="221" width="141" height="57" as="geometry">
                        <mxRectangle width="141" height="57" as="alternateBounds"/>
                    </mxGeometry>
                </mxCell>
                <mxCell id="344" value="" style="shape=tableRow;horizontal=0;startSize=0;swimlaneHead=0;swimlaneBody=0;top=0;left=0;bottom=0;right=0;collapsible=0;dropTarget=0;fillColor=none;points=[[0,0.5],[1,0.5]];portConstraint=eastwest;shadow=1;labelBackgroundColor=none;strokeColor=#050505;fontColor=#000000;" vertex="1" parent="335">
                    <mxGeometry y="144" width="362" height="56" as="geometry"/>
                </mxCell>
                <mxCell id="345" value="2" style="shape=partialRectangle;html=1;whiteSpace=wrap;connectable=0;top=0;left=0;bottom=0;right=0;overflow=hidden;shadow=1;labelBackgroundColor=none;fillColor=#eeeeee;strokeColor=#36393d;fontColor=#252323;" vertex="1" parent="344">
                    <mxGeometry width="80" height="56" as="geometry">
                        <mxRectangle width="80" height="56" as="alternateBounds"/>
                    </mxGeometry>
                </mxCell>
                <mxCell id="346" value="1" style="shape=partialRectangle;html=1;whiteSpace=wrap;connectable=0;top=0;left=0;bottom=0;right=0;overflow=hidden;shadow=1;labelBackgroundColor=none;fillColor=#eeeeee;strokeColor=#36393d;fontColor=#252323;" vertex="1" parent="344">
                    <mxGeometry x="80" width="141" height="56" as="geometry">
                        <mxRectangle width="141" height="56" as="alternateBounds"/>
                    </mxGeometry>
                </mxCell>
                <mxCell id="347" value="3" style="shape=partialRectangle;html=1;whiteSpace=wrap;connectable=0;top=0;left=0;bottom=0;right=0;overflow=hidden;shadow=1;labelBackgroundColor=none;fillColor=#eeeeee;strokeColor=#36393d;fontColor=#252323;" vertex="1" parent="344">
                    <mxGeometry x="221" width="141" height="56" as="geometry">
                        <mxRectangle width="141" height="56" as="alternateBounds"/>
                    </mxGeometry>
                </mxCell>
                <mxCell id="348" style="shape=tableRow;horizontal=0;startSize=0;swimlaneHead=0;swimlaneBody=0;top=0;left=0;bottom=0;right=0;collapsible=0;dropTarget=0;fillColor=none;points=[[0,0.5],[1,0.5]];portConstraint=eastwest;shadow=1;labelBackgroundColor=none;strokeColor=#050505;fontColor=#000000;" vertex="1" parent="335">
                    <mxGeometry y="200" width="362" height="56" as="geometry"/>
                </mxCell>
                <mxCell id="349" value="3" style="shape=partialRectangle;html=1;whiteSpace=wrap;connectable=0;top=0;left=0;bottom=0;right=0;overflow=hidden;shadow=1;labelBackgroundColor=none;fillColor=#eeeeee;strokeColor=#36393d;fontColor=#252323;" vertex="1" parent="348">
                    <mxGeometry width="80" height="56" as="geometry">
                        <mxRectangle width="80" height="56" as="alternateBounds"/>
                    </mxGeometry>
                </mxCell>
                <mxCell id="350" value="2" style="shape=partialRectangle;html=1;whiteSpace=wrap;connectable=0;top=0;left=0;bottom=0;right=0;overflow=hidden;shadow=1;labelBackgroundColor=none;fillColor=#eeeeee;strokeColor=#36393d;fontColor=#252323;" vertex="1" parent="348">
                    <mxGeometry x="80" width="141" height="56" as="geometry">
                        <mxRectangle width="141" height="56" as="alternateBounds"/>
                    </mxGeometry>
                </mxCell>
                <mxCell id="351" value="2" style="shape=partialRectangle;html=1;whiteSpace=wrap;connectable=0;top=0;left=0;bottom=0;right=0;overflow=hidden;shadow=1;labelBackgroundColor=none;fillColor=#eeeeee;strokeColor=#36393d;fontColor=#252323;" vertex="1" parent="348">
                    <mxGeometry x="221" width="141" height="56" as="geometry">
                        <mxRectangle width="141" height="56" as="alternateBounds"/>
                    </mxGeometry>
                </mxCell>
                <mxCell id="352" style="shape=tableRow;horizontal=0;startSize=0;swimlaneHead=0;swimlaneBody=0;top=0;left=0;bottom=0;right=0;collapsible=0;dropTarget=0;fillColor=none;points=[[0,0.5],[1,0.5]];portConstraint=eastwest;shadow=1;labelBackgroundColor=none;strokeColor=#050505;fontColor=#000000;" vertex="1" parent="335">
                    <mxGeometry y="256" width="362" height="56" as="geometry"/>
                </mxCell>
                <mxCell id="353" value="4" style="shape=partialRectangle;html=1;whiteSpace=wrap;connectable=0;top=0;left=0;bottom=0;right=0;overflow=hidden;shadow=1;labelBackgroundColor=none;fillColor=#eeeeee;strokeColor=#36393d;fontColor=#252323;" vertex="1" parent="352">
                    <mxGeometry width="80" height="56" as="geometry">
                        <mxRectangle width="80" height="56" as="alternateBounds"/>
                    </mxGeometry>
                </mxCell>
                <mxCell id="354" value="3" style="shape=partialRectangle;html=1;whiteSpace=wrap;connectable=0;top=0;left=0;bottom=0;right=0;overflow=hidden;shadow=1;labelBackgroundColor=none;fillColor=#eeeeee;strokeColor=#36393d;fontColor=#252323;" vertex="1" parent="352">
                    <mxGeometry x="80" width="141" height="56" as="geometry">
                        <mxRectangle width="141" height="56" as="alternateBounds"/>
                    </mxGeometry>
                </mxCell>
                <mxCell id="355" value="1" style="shape=partialRectangle;html=1;whiteSpace=wrap;connectable=0;top=0;left=0;bottom=0;right=0;overflow=hidden;shadow=1;labelBackgroundColor=none;fillColor=#eeeeee;strokeColor=#36393d;fontColor=#252323;" vertex="1" parent="352">
                    <mxGeometry x="221" width="141" height="56" as="geometry">
                        <mxRectangle width="141" height="56" as="alternateBounds"/>
                    </mxGeometry>
                </mxCell>
            </root>
        </mxGraphModel>
    </diagram>
</mxfile>